<svg width="105" height="149" viewBox="0 0 105 149" fill="none" xmlns="http://www.w3.org/2000/svg">
<path fill-rule="evenodd" clip-rule="evenodd" d="M52.5 105C81.4949 105 105 81.4949 105 52.5C105 23.5051 81.4949 0 52.5 0C23.5051 0 0 23.5051 0 52.5C0 81.4949 23.5051 105 52.5 105ZM52.5 100.625C79.0787 100.625 100.625 79.0787 100.625 52.5C100.625 25.9213 79.0787 4.375 52.5 4.375C25.9213 4.375 4.375 25.9213 4.375 52.5C4.375 79.0787 25.9213 100.625 52.5 100.625Z" fill="black"/>
<path d="M24 48.375V62.625H38.25V48.375H24ZM45.375 48.375V62.625H59.625V48.375H45.375ZM66.75 48.375V62.625H81V48.375H66.75Z" fill="black"/>
<path d="M37.15 131.82C37.15 132.893 36.9767 133.88 36.63 134.78C36.29 135.673 35.8067 136.447 35.18 137.1C34.5533 137.747 33.8033 138.25 32.93 138.61C32.0567 138.97 31.0867 139.15 30.02 139.15C28.96 139.15 27.99 138.97 27.11 138.61C26.2367 138.25 25.4867 137.747 24.86 137.1C24.24 136.447 23.7567 135.673 23.41 134.78C23.0633 133.88 22.89 132.893 22.89 131.82C22.89 130.753 23.0633 129.77 23.41 128.87C23.7567 127.97 24.24 127.197 24.86 126.55C25.4867 125.897 26.2367 125.39 27.11 125.03C27.99 124.663 28.96 124.48 30.02 124.48C31.0867 124.48 32.0567 124.663 32.93 125.03C33.8033 125.39 34.5533 125.897 35.18 126.55C35.8067 127.197 36.29 127.97 36.63 128.87C36.9767 129.77 37.15 130.753 37.15 131.82ZM34.97 131.82C34.97 130.967 34.8533 130.2 34.62 129.52C34.3867 128.84 34.0533 128.263 33.62 127.79C33.1933 127.317 32.6733 126.953 32.06 126.7C31.4533 126.447 30.7733 126.32 30.02 126.32C29.2667 126.32 28.5833 126.447 27.97 126.7C27.3633 126.953 26.8433 127.317 26.41 127.79C25.9767 128.263 25.6433 128.84 25.41 129.52C25.1767 130.2 25.06 130.967 25.06 131.82C25.06 132.68 25.1767 133.45 25.41 134.13C25.6433 134.803 25.9767 135.377 26.41 135.85C26.8433 136.323 27.3633 136.687 27.97 136.94C28.5833 137.187 29.2667 137.31 30.02 137.31C30.7733 137.31 31.4533 137.187 32.06 136.94C32.6733 136.687 33.1933 136.323 33.62 135.85C34.0533 135.377 34.3867 134.803 34.62 134.13C34.8533 133.45 34.97 132.68 34.97 131.82ZM42.5656 139.16C41.7456 139.16 41.1123 138.93 40.6656 138.47C40.2256 138.01 40.0056 137.353 40.0056 136.5V130.42H38.8256C38.7123 130.42 38.6156 130.387 38.5356 130.32C38.4623 130.247 38.4256 130.14 38.4256 130V129.21L40.0756 128.98L40.5156 125.95C40.5423 125.837 40.5923 125.75 40.6656 125.69C40.7456 125.623 40.8456 125.59 40.9656 125.59H41.9556V129H44.8356V130.42H41.9556V136.37C41.9556 136.77 42.0523 137.07 42.2456 137.27C42.4456 137.463 42.699 137.56 43.0056 137.56C43.1856 137.56 43.339 137.537 43.4656 137.49C43.599 137.443 43.7123 137.393 43.8056 137.34C43.899 137.28 43.979 137.227 44.0456 137.18C44.1123 137.133 44.1723 137.11 44.2256 137.11C44.2923 137.11 44.3423 137.127 44.3756 137.16C44.4156 137.187 44.4556 137.233 44.4956 137.3L45.0756 138.24C44.7556 138.533 44.3756 138.76 43.9356 138.92C43.4956 139.08 43.039 139.16 42.5656 139.16ZM48.5817 130.13C49.0084 129.697 49.4784 129.347 49.9917 129.08C50.5117 128.813 51.1084 128.68 51.7817 128.68C52.3417 128.68 52.8317 128.773 53.2517 128.96C53.6784 129.147 54.0351 129.41 54.3217 129.75C54.6084 130.083 54.8251 130.487 54.9717 130.96C55.1184 131.433 55.1917 131.957 55.1917 132.53V139H53.2317V132.53C53.2317 131.803 53.0651 131.24 52.7317 130.84C52.3984 130.433 51.8884 130.23 51.2017 130.23C50.7017 130.23 50.2317 130.35 49.7917 130.59C49.3584 130.823 48.9551 131.143 48.5817 131.55V139H46.6317V124.24H48.5817V130.13ZM64.5531 132.79C64.5531 132.403 64.4965 132.047 64.3831 131.72C64.2765 131.393 64.1165 131.11 63.9031 130.87C63.6898 130.63 63.4298 130.443 63.1231 130.31C62.8165 130.177 62.4631 130.11 62.0631 130.11C61.2431 130.11 60.5965 130.347 60.1231 130.82C59.6565 131.293 59.3598 131.95 59.2331 132.79H64.5531ZM66.1631 137.55C65.9231 137.83 65.6465 138.073 65.3331 138.28C65.0198 138.48 64.6865 138.643 64.3331 138.77C63.9798 138.897 63.6131 138.99 63.2331 139.05C62.8598 139.11 62.4898 139.14 62.1231 139.14C61.4231 139.14 60.7731 139.023 60.1731 138.79C59.5798 138.55 59.0631 138.203 58.6231 137.75C58.1898 137.29 57.8498 136.723 57.6031 136.05C57.3631 135.37 57.2431 134.59 57.2431 133.71C57.2431 133.003 57.3531 132.347 57.5731 131.74C57.7931 131.127 58.1065 130.593 58.5131 130.14C58.9265 129.687 59.4298 129.33 60.0231 129.07C60.6165 128.81 61.2831 128.68 62.0231 128.68C62.6431 128.68 63.2131 128.783 63.7331 128.99C64.2598 129.19 64.7131 129.483 65.0931 129.87C65.4731 130.257 65.7698 130.733 65.9831 131.3C66.2031 131.867 66.3131 132.513 66.3131 133.24C66.3131 133.54 66.2798 133.743 66.2131 133.85C66.1465 133.95 66.0231 134 65.8431 134H59.1831C59.2031 134.607 59.2898 135.137 59.4431 135.59C59.5965 136.037 59.8065 136.41 60.0731 136.71C60.3465 137.01 60.6698 137.233 61.0431 137.38C61.4165 137.527 61.8331 137.6 62.2931 137.6C62.7265 137.6 63.0998 137.55 63.4131 137.45C63.7331 137.35 64.0065 137.243 64.2331 137.13C64.4665 137.01 64.6598 136.9 64.8131 136.8C64.9731 136.7 65.1131 136.65 65.2331 136.65C65.3931 136.65 65.5165 136.71 65.6031 136.83L66.1631 137.55ZM70.2491 130.79C70.5757 130.123 70.9691 129.6 71.4291 129.22C71.8891 128.84 72.4424 128.65 73.0891 128.65C73.3091 128.65 73.5157 128.677 73.7091 128.73C73.9091 128.777 74.0824 128.85 74.2291 128.95L74.0991 130.42C74.0524 130.6 73.9424 130.69 73.7691 130.69C73.6757 130.69 73.5357 130.673 73.3491 130.64C73.1624 130.6 72.9624 130.58 72.7491 130.58C72.4357 130.58 72.1591 130.627 71.9191 130.72C71.6791 130.807 71.4624 130.94 71.2691 131.12C71.0824 131.293 70.9157 131.51 70.7691 131.77C70.6224 132.023 70.4857 132.313 70.3591 132.64V139H68.4091V128.84H69.5291C69.7424 128.84 69.8857 128.88 69.9591 128.96C70.0391 129.033 70.0957 129.167 70.1291 129.36L70.2491 130.79ZM81.6647 130.59C81.6114 130.677 81.5547 130.74 81.4947 130.78C81.4347 130.813 81.358 130.83 81.2647 130.83C81.158 130.83 81.038 130.793 80.9047 130.72C80.778 130.647 80.6214 130.567 80.4347 130.48C80.2547 130.393 80.0414 130.313 79.7947 130.24C79.548 130.167 79.2547 130.13 78.9147 130.13C78.6347 130.13 78.378 130.167 78.1447 130.24C77.918 130.307 77.7247 130.403 77.5647 130.53C77.4047 130.65 77.2814 130.797 77.1947 130.97C77.108 131.137 77.0647 131.317 77.0647 131.51C77.0647 131.763 77.138 131.973 77.2847 132.14C77.438 132.307 77.6347 132.45 77.8747 132.57C78.1214 132.69 78.398 132.8 78.7047 132.9C79.018 132.993 79.3347 133.093 79.6547 133.2C79.9814 133.307 80.298 133.43 80.6047 133.57C80.918 133.703 81.1947 133.873 81.4347 134.08C81.6814 134.28 81.878 134.523 82.0247 134.81C82.178 135.097 82.2547 135.447 82.2547 135.86C82.2547 136.333 82.168 136.773 81.9947 137.18C81.828 137.58 81.578 137.927 81.2447 138.22C80.918 138.513 80.5114 138.743 80.0247 138.91C79.538 139.077 78.9814 139.16 78.3547 139.16C77.6547 139.16 77.008 139.043 76.4147 138.81C75.8214 138.577 75.3247 138.28 74.9247 137.92L75.3847 137.17C75.438 137.077 75.5047 137.007 75.5847 136.96C75.6647 136.907 75.7714 136.88 75.9047 136.88C76.0314 136.88 76.1614 136.927 76.2947 137.02C76.428 137.113 76.588 137.217 76.7747 137.33C76.9614 137.437 77.188 137.537 77.4547 137.63C77.7214 137.717 78.0547 137.76 78.4547 137.76C78.788 137.76 79.078 137.72 79.3247 137.64C79.5714 137.553 79.7747 137.44 79.9347 137.3C80.1014 137.153 80.2247 136.987 80.3047 136.8C80.3847 136.613 80.4247 136.417 80.4247 136.21C80.4247 135.943 80.348 135.723 80.1947 135.55C80.048 135.37 79.8514 135.217 79.6047 135.09C79.3647 134.963 79.088 134.853 78.7747 134.76C78.4614 134.667 78.1414 134.567 77.8147 134.46C77.488 134.353 77.168 134.23 76.8547 134.09C76.5414 133.95 76.2614 133.773 76.0147 133.56C75.7747 133.347 75.578 133.087 75.4247 132.78C75.278 132.473 75.2047 132.1 75.2047 131.66C75.2047 131.267 75.2847 130.89 75.4447 130.53C75.6114 130.17 75.848 129.853 76.1547 129.58C76.468 129.307 76.8514 129.09 77.3047 128.93C77.7647 128.763 78.288 128.68 78.8747 128.68C79.548 128.68 80.1547 128.787 80.6947 129C81.2414 129.213 81.708 129.507 82.0947 129.88L81.6647 130.59Z" fill="black"/>
</svg>
