<svg width="105" height="149" viewBox="0 0 105 149" fill="none" xmlns="http://www.w3.org/2000/svg">
<g clip-path="url(#clip0_6_531)">
<path fill-rule="evenodd" clip-rule="evenodd" d="M71.0833 36.5C73.1387 36.5 75.11 37.3165 76.5634 38.7699C78.0168 40.2233 78.8333 42.1946 78.8333 44.25V59.75C78.8333 61.8054 78.0168 63.7767 76.5634 65.2301C75.11 66.6835 73.1387 67.5 71.0833 67.5H34.9166C32.8612 67.5 30.89 66.6835 29.4365 65.2301C27.9831 63.7767 27.1666 61.8054 27.1666 59.75V44.25C27.1666 42.1946 27.9831 40.2233 29.4365 38.7699C30.89 37.3165 32.8612 36.5 34.9166 36.5H71.0833ZM71.0833 57.1667H34.9166C34.2839 57.1667 33.6732 57.3991 33.2003 57.8195C32.7275 58.24 32.4254 58.8194 32.3514 59.4478L32.3333 59.75V62.3333H73.6666V59.75C73.6665 59.1173 73.4342 58.5065 73.0138 58.0337C72.5933 57.5609 72.0139 57.2588 71.3855 57.1847L71.0833 57.1667ZM68.5 44.25C67.8148 44.25 67.1577 44.5222 66.6733 45.0066C66.1888 45.4911 65.9166 46.1482 65.9166 46.8333C65.9166 47.5185 66.1888 48.1756 66.6733 48.66C67.1577 49.1445 67.8148 49.4167 68.5 49.4167C69.1851 49.4167 69.8422 49.1445 70.3267 48.66C70.8111 48.1756 71.0833 47.5185 71.0833 46.8333C71.0833 46.1482 70.8111 45.4911 70.3267 45.0066C69.8422 44.5222 69.1851 44.25 68.5 44.25Z" fill="black"/>
</g>
<path fill-rule="evenodd" clip-rule="evenodd" d="M52.5 105C81.4949 105 105 81.4949 105 52.5C105 23.5051 81.4949 0 52.5 0C23.5051 0 0 23.5051 0 52.5C0 81.4949 23.5051 105 52.5 105ZM52.5 100.625C79.0787 100.625 100.625 79.0787 100.625 52.5C100.625 25.9213 79.0787 4.375 52.5 4.375C25.9213 4.375 4.375 25.9213 4.375 52.5C4.375 79.0787 25.9213 100.625 52.5 100.625Z" fill="black"/>
<path d="M31.4 133.65L29.27 128.08C29.1167 127.7 28.9633 127.22 28.81 126.64C28.7367 126.927 28.66 127.193 28.58 127.44C28.5067 127.687 28.4333 127.907 28.36 128.1L26.24 133.65H31.4ZM35.61 139H33.97C33.7833 139 33.63 138.953 33.51 138.86C33.39 138.767 33.3033 138.647 33.25 138.5L31.98 135.17H25.65L24.38 138.5C24.3333 138.627 24.2467 138.743 24.12 138.85C23.9933 138.95 23.84 139 23.66 139H22.02L27.74 124.64H29.89L35.61 139ZM39.0038 128.84V139H37.0538V128.84H39.0038ZM39.3738 125.7C39.3738 125.88 39.3371 126.053 39.2638 126.22C39.1904 126.38 39.0904 126.523 38.9638 126.65C38.8438 126.77 38.7004 126.867 38.5337 126.94C38.3671 127.007 38.1938 127.04 38.0138 127.04C37.8338 127.04 37.6638 127.007 37.5038 126.94C37.3438 126.867 37.2004 126.77 37.0738 126.65C36.9538 126.523 36.8571 126.38 36.7838 126.22C36.7171 126.053 36.6838 125.88 36.6838 125.7C36.6838 125.513 36.7171 125.34 36.7838 125.18C36.8571 125.013 36.9538 124.87 37.0738 124.75C37.2004 124.623 37.3438 124.527 37.5038 124.46C37.6638 124.387 37.8338 124.35 38.0138 124.35C38.1938 124.35 38.3671 124.387 38.5337 124.46C38.7004 124.527 38.8438 124.623 38.9638 124.75C39.0904 124.87 39.1904 125.013 39.2638 125.18C39.3371 125.34 39.3738 125.513 39.3738 125.7ZM43.667 130.79C43.9937 130.123 44.387 129.6 44.847 129.22C45.307 128.84 45.8604 128.65 46.507 128.65C46.727 128.65 46.9337 128.677 47.127 128.73C47.327 128.777 47.5004 128.85 47.647 128.95L47.517 130.42C47.4704 130.6 47.3604 130.69 47.187 130.69C47.0937 130.69 46.9537 130.673 46.767 130.64C46.5804 130.6 46.3804 130.58 46.167 130.58C45.8537 130.58 45.577 130.627 45.337 130.72C45.097 130.807 44.8804 130.94 44.687 131.12C44.5004 131.293 44.3337 131.51 44.187 131.77C44.0404 132.023 43.9037 132.313 43.777 132.64V139H41.827V128.84H42.947C43.1604 128.84 43.3037 128.88 43.377 128.96C43.457 129.033 43.5137 129.167 43.547 129.36L43.667 130.79ZM64.2102 135.92C64.3302 135.92 64.4335 135.967 64.5202 136.06L65.3602 136.98C64.7735 137.673 64.0568 138.21 63.2102 138.59C62.3702 138.97 61.3568 139.16 60.1702 139.16C59.1302 139.16 58.1868 138.98 57.3402 138.62C56.5002 138.26 55.7802 137.757 55.1802 137.11C54.5868 136.463 54.1268 135.69 53.8002 134.79C53.4735 133.89 53.3102 132.9 53.3102 131.82C53.3102 130.74 53.4802 129.75 53.8202 128.85C54.1668 127.95 54.6502 127.177 55.2702 126.53C55.8902 125.883 56.6302 125.38 57.4902 125.02C58.3568 124.66 59.3135 124.48 60.3602 124.48C61.3802 124.48 62.2868 124.647 63.0802 124.98C63.8735 125.313 64.5635 125.757 65.1502 126.31L64.4502 127.3C64.4035 127.373 64.3435 127.433 64.2702 127.48C64.2035 127.527 64.1135 127.55 64.0002 127.55C63.8735 127.55 63.7235 127.487 63.5502 127.36C63.3835 127.233 63.1602 127.093 62.8802 126.94C62.6068 126.78 62.2668 126.637 61.8602 126.51C61.4535 126.383 60.9468 126.32 60.3402 126.32C59.6268 126.32 58.9735 126.447 58.3802 126.7C57.7868 126.947 57.2735 127.307 56.8402 127.78C56.4135 128.247 56.0802 128.823 55.8402 129.51C55.6068 130.19 55.4902 130.96 55.4902 131.82C55.4902 132.693 55.6135 133.47 55.8602 134.15C56.1068 134.83 56.4468 135.407 56.8802 135.88C57.3135 136.353 57.8235 136.713 58.4102 136.96C58.9968 137.207 59.6302 137.33 60.3102 137.33C60.7235 137.33 61.0935 137.307 61.4202 137.26C61.7535 137.207 62.0568 137.13 62.3302 137.03C62.6102 136.93 62.8735 136.803 63.1202 136.65C63.3668 136.49 63.6102 136.3 63.8502 136.08C63.9035 136.033 63.9602 135.997 64.0202 135.97C64.0802 135.937 64.1435 135.92 64.2102 135.92ZM71.2352 128.68C71.9818 128.68 72.6552 128.803 73.2552 129.05C73.8618 129.29 74.3752 129.64 74.7952 130.1C75.2218 130.553 75.5485 131.103 75.7752 131.75C76.0018 132.39 76.1152 133.11 76.1152 133.91C76.1152 134.71 76.0018 135.433 75.7752 136.08C75.5485 136.727 75.2218 137.277 74.7952 137.73C74.3752 138.183 73.8618 138.533 73.2552 138.78C72.6552 139.02 71.9818 139.14 71.2352 139.14C70.4818 139.14 69.8018 139.02 69.1952 138.78C68.5952 138.533 68.0818 138.183 67.6552 137.73C67.2285 137.277 66.8985 136.727 66.6652 136.08C66.4385 135.433 66.3252 134.71 66.3252 133.91C66.3252 133.11 66.4385 132.39 66.6652 131.75C66.8985 131.103 67.2285 130.553 67.6552 130.1C68.0818 129.64 68.5952 129.29 69.1952 129.05C69.8018 128.803 70.4818 128.68 71.2352 128.68ZM71.2352 137.62C72.1952 137.62 72.9118 137.297 73.3852 136.65C73.8585 136.003 74.0952 135.093 74.0952 133.92C74.0952 132.747 73.8585 131.837 73.3852 131.19C72.9118 130.537 72.1952 130.21 71.2352 130.21C70.2618 130.21 69.5352 130.537 69.0552 131.19C68.5818 131.837 68.3452 132.747 68.3452 133.92C68.3452 135.093 68.5818 136.003 69.0552 136.65C69.5352 137.297 70.2618 137.62 71.2352 137.62ZM80.1219 130.25C80.3419 130.017 80.5719 129.803 80.8119 129.61C81.0519 129.417 81.3052 129.253 81.5719 129.12C81.8452 128.98 82.1352 128.873 82.4419 128.8C82.7552 128.72 83.0885 128.68 83.4419 128.68C84.0019 128.68 84.4919 128.773 84.9119 128.96C85.3385 129.147 85.6952 129.41 85.9819 129.75C86.2685 130.083 86.4852 130.487 86.6319 130.96C86.7785 131.433 86.8519 131.957 86.8519 132.53V139H84.8919V132.53C84.8919 131.803 84.7252 131.24 84.3919 130.84C84.0585 130.433 83.5485 130.23 82.8619 130.23C82.3619 130.23 81.8919 130.35 81.4519 130.59C81.0185 130.823 80.6152 131.143 80.2419 131.55V139H78.2919V128.84H79.4619C79.7352 128.84 79.9052 128.97 79.9719 129.23L80.1219 130.25Z" fill="black"/>
<defs>
<clipPath id="clip0_6_531">
<rect width="62" height="62" fill="white" transform="translate(22 21)"/>
</clipPath>
</defs>
</svg>
