<svg width="108" height="141" viewBox="0 0 108 141" fill="none" xmlns="http://www.w3.org/2000/svg">
<path fill-rule="evenodd" clip-rule="evenodd" d="M52.5 105C81.4949 105 105 81.4949 105 52.5C105 23.5051 81.4949 0 52.5 0C23.5051 0 0 23.5051 0 52.5C0 81.4949 23.5051 105 52.5 105ZM52.5 100.625C79.0787 100.625 100.625 79.0787 100.625 52.5C100.625 25.9213 79.0787 4.375 52.5 4.375C25.9213 4.375 4.375 25.9213 4.375 52.5C4.375 79.0787 25.9213 100.625 52.5 100.625Z" fill="#5039A9"/>
<path fill-rule="evenodd" clip-rule="evenodd" d="M49.5904 54.581L33.9396 25.1431C33.8497 24.974 33.7939 24.7888 33.7756 24.5982C33.7572 24.4076 33.7766 24.2152 33.8326 24.032C33.9457 23.6621 34.2011 23.3523 34.5426 23.1707C34.8841 22.9891 35.2838 22.9506 35.6537 23.0637C35.8368 23.1197 36.0072 23.2112 36.1549 23.3331C36.3027 23.4549 36.4251 23.6046 36.515 23.7737L52.1673 53.2117L54.3869 52.0304C55.0634 51.6708 55.8041 51.4479 56.5667 51.3745C57.3293 51.3012 58.099 51.3788 58.8316 51.6029C59.5642 51.8271 60.2455 52.1933 60.8366 52.6808C61.4277 53.1682 61.917 53.7674 62.2764 54.4439L63.2215 56.2217L73.2402 70.8837L60.4973 77.6577L56.0829 68.9325L53.4812 70.2494L57.9219 79.0285L52.4589 81.9321L45.9037 65.4267L44.9602 63.6504C44.6005 62.974 44.3776 62.2334 44.3041 61.4708C44.2307 60.7082 44.3081 59.9386 44.5321 59.206C44.7561 58.4734 45.1222 57.7921 45.6095 57.2009C46.0968 56.6098 46.6958 56.1204 47.3723 55.7608L49.5904 54.581ZM55.7548 54.6073L48.7402 58.3362C48.402 58.516 48.1025 58.7607 47.8588 59.0563C47.6152 59.3519 47.4321 59.6925 47.3201 60.0588C47.2081 60.4251 47.1694 60.8099 47.2061 61.1912C47.2428 61.5725 47.3543 61.9428 47.5342 62.281L48.4777 64.0573L60.6446 57.5881L59.6996 55.8133C59.5198 55.4751 59.2751 55.1756 58.9795 54.9319C58.684 54.6883 58.3433 54.5052 57.977 54.3932C57.6107 54.2812 57.2259 54.2425 56.8446 54.2792C56.4633 54.316 56.093 54.4274 55.7548 54.6073Z" fill="#5039A9"/>
<path d="M43.3283 68.8115C43.0809 68.5143 42.7257 68.3276 42.3406 68.2923C41.9556 68.257 41.5723 68.3761 41.275 68.6233H41.2779L41.2619 68.635L41.17 68.705C41.0395 68.8031 40.9063 68.8974 40.7704 68.9879C40.4088 69.2285 39.8692 69.5567 39.175 69.8863C37.3907 70.7438 35.438 71.1937 33.4583 71.2031C33.0716 71.2031 32.7006 71.3568 32.4271 71.6303C32.1536 71.9038 32 72.2747 32 72.6615C32 73.0482 32.1536 73.4192 32.4271 73.6927C32.7006 73.9662 33.0716 74.1198 33.4583 74.1198C35.8719 74.1105 38.2531 73.564 40.4292 72.52C41.108 72.1986 41.7629 71.8292 42.3892 71.4146C42.6236 71.2577 42.8522 71.0924 43.0746 70.9188L43.1183 70.8852L43.1329 70.8735L43.1373 70.8677H43.1402L43.1417 70.8648C43.4386 70.6172 43.6251 70.2618 43.6601 69.8768C43.6951 69.4917 43.5758 69.1086 43.3283 68.8115ZM46.3383 76.2271C46.4446 76.3864 46.5185 76.5651 46.5558 76.753C46.593 76.9409 46.5929 77.1343 46.5553 77.3221C46.5178 77.51 46.4437 77.6886 46.3371 77.8477C46.2306 78.0069 46.0937 78.1435 45.9344 78.2498L45.9315 78.2527L45.9256 78.2556L45.911 78.2644L45.8658 78.2936C45.6133 78.4542 45.3571 78.6088 45.0973 78.7573C44.5854 79.0504 43.8577 79.4398 42.9827 79.8277C41.2619 80.5933 38.8556 81.4115 36.375 81.4115C35.9882 81.4115 35.6173 81.2578 35.3438 80.9843C35.0703 80.7108 34.9167 80.3399 34.9167 79.9531C34.9167 79.5664 35.0703 79.1954 35.3438 78.9219C35.6173 78.6484 35.9882 78.4948 36.375 78.4948C38.2679 78.4948 40.2396 77.8546 41.7985 77.1619C42.6107 76.7995 43.3989 76.3855 44.1581 75.9223C44.2007 75.8972 44.2425 75.871 44.2835 75.8435L44.3127 75.826L44.3156 75.8231C44.475 75.7168 44.6537 75.6429 44.8416 75.6057C45.0294 75.5685 45.2228 75.5686 45.4107 75.6061C45.5985 75.6436 45.7771 75.7178 45.9363 75.8243C46.0954 75.9309 46.2321 76.0677 46.3383 76.2271Z" fill="#5039A9"/>
<path d="M18.8 128.92C18.92 128.92 19.0233 128.967 19.11 129.06L19.95 129.98C19.3633 130.673 18.6467 131.21 17.8 131.59C16.96 131.97 15.9467 132.16 14.76 132.16C13.72 132.16 12.7767 131.98 11.93 131.62C11.09 131.26 10.37 130.757 9.77 130.11C9.17667 129.463 8.71667 128.69 8.39 127.79C8.06333 126.89 7.9 125.9 7.9 124.82C7.9 123.74 8.07 122.75 8.41 121.85C8.75667 120.95 9.24 120.177 9.86 119.53C10.48 118.883 11.22 118.38 12.08 118.02C12.9467 117.66 13.9033 117.48 14.95 117.48C15.97 117.48 16.8767 117.647 17.67 117.98C18.4633 118.313 19.1533 118.757 19.74 119.31L19.04 120.3C18.9933 120.373 18.9333 120.433 18.86 120.48C18.7933 120.527 18.7033 120.55 18.59 120.55C18.4633 120.55 18.3133 120.487 18.14 120.36C17.9733 120.233 17.75 120.093 17.47 119.94C17.1967 119.78 16.8567 119.637 16.45 119.51C16.0433 119.383 15.5367 119.32 14.93 119.32C14.2167 119.32 13.5633 119.447 12.97 119.7C12.3767 119.947 11.8633 120.307 11.43 120.78C11.0033 121.247 10.67 121.823 10.43 122.51C10.1967 123.19 10.08 123.96 10.08 124.82C10.08 125.693 10.2033 126.47 10.45 127.15C10.6967 127.83 11.0367 128.407 11.47 128.88C11.9033 129.353 12.4133 129.713 13 129.96C13.5867 130.207 14.22 130.33 14.9 130.33C15.3133 130.33 15.6833 130.307 16.01 130.26C16.3433 130.207 16.6467 130.13 16.92 130.03C17.2 129.93 17.4633 129.803 17.71 129.65C17.9567 129.49 18.2 129.3 18.44 129.08C18.4933 129.033 18.55 128.997 18.61 128.97C18.67 128.937 18.7333 128.92 18.8 128.92ZM23.6903 117.24V132H21.7303V117.24H23.6903ZM33.2055 125.79C33.2055 125.403 33.1488 125.047 33.0355 124.72C32.9288 124.393 32.7688 124.11 32.5555 123.87C32.3421 123.63 32.0821 123.443 31.7755 123.31C31.4688 123.177 31.1155 123.11 30.7155 123.11C29.8955 123.11 29.2488 123.347 28.7755 123.82C28.3088 124.293 28.0121 124.95 27.8855 125.79H33.2055ZM34.8155 130.55C34.5755 130.83 34.2988 131.073 33.9855 131.28C33.6721 131.48 33.3388 131.643 32.9855 131.77C32.6321 131.897 32.2655 131.99 31.8855 132.05C31.5121 132.11 31.1421 132.14 30.7755 132.14C30.0755 132.14 29.4255 132.023 28.8255 131.79C28.2321 131.55 27.7155 131.203 27.2755 130.75C26.8421 130.29 26.5021 129.723 26.2555 129.05C26.0155 128.37 25.8955 127.59 25.8955 126.71C25.8955 126.003 26.0055 125.347 26.2255 124.74C26.4455 124.127 26.7588 123.593 27.1655 123.14C27.5788 122.687 28.0821 122.33 28.6755 122.07C29.2688 121.81 29.9355 121.68 30.6755 121.68C31.2955 121.68 31.8655 121.783 32.3855 121.99C32.9121 122.19 33.3655 122.483 33.7455 122.87C34.1255 123.257 34.4221 123.733 34.6355 124.3C34.8555 124.867 34.9655 125.513 34.9655 126.24C34.9655 126.54 34.9321 126.743 34.8655 126.85C34.7988 126.95 34.6755 127 34.4955 127H27.8355C27.8555 127.607 27.9421 128.137 28.0955 128.59C28.2488 129.037 28.4588 129.41 28.7255 129.71C28.9988 130.01 29.3221 130.233 29.6955 130.38C30.0688 130.527 30.4855 130.6 30.9455 130.6C31.3788 130.6 31.7521 130.55 32.0655 130.45C32.3855 130.35 32.6588 130.243 32.8855 130.13C33.1188 130.01 33.3121 129.9 33.4655 129.8C33.6255 129.7 33.7655 129.65 33.8855 129.65C34.0455 129.65 34.1688 129.71 34.2555 129.83L34.8155 130.55ZM42.5214 127.49C41.7281 127.517 41.0547 127.58 40.5014 127.68C39.9481 127.773 39.4981 127.9 39.1514 128.06C38.8047 128.22 38.5547 128.41 38.4014 128.63C38.2481 128.843 38.1714 129.083 38.1714 129.35C38.1714 129.603 38.2114 129.823 38.2914 130.01C38.3781 130.19 38.4914 130.34 38.6314 130.46C38.7781 130.573 38.9481 130.657 39.1414 130.71C39.3347 130.763 39.5447 130.79 39.7714 130.79C40.0714 130.79 40.3447 130.76 40.5914 130.7C40.8447 130.64 41.0814 130.557 41.3014 130.45C41.5214 130.337 41.7314 130.2 41.9314 130.04C42.1314 129.88 42.3281 129.697 42.5214 129.49V127.49ZM36.8014 123.26C37.3681 122.72 37.9814 122.317 38.6414 122.05C39.3081 121.783 40.0381 121.65 40.8314 121.65C41.4114 121.65 41.9247 121.747 42.3714 121.94C42.8181 122.127 43.1947 122.39 43.5014 122.73C43.8081 123.07 44.0381 123.477 44.1914 123.95C44.3514 124.423 44.4314 124.947 44.4314 125.52V132H43.5614C43.3681 132 43.2214 131.97 43.1214 131.91C43.0214 131.843 42.9414 131.723 42.8814 131.55L42.6714 130.66C42.4114 130.9 42.1547 131.113 41.9014 131.3C41.6481 131.48 41.3814 131.637 41.1014 131.77C40.8281 131.897 40.5347 131.993 40.2214 132.06C39.9081 132.127 39.5614 132.16 39.1814 132.16C38.7814 132.16 38.4047 132.107 38.0514 132C37.7047 131.887 37.4014 131.717 37.1414 131.49C36.8814 131.263 36.6747 130.98 36.5214 130.64C36.3747 130.3 36.3014 129.903 36.3014 129.45C36.3014 129.05 36.4081 128.667 36.6214 128.3C36.8414 127.927 37.1947 127.593 37.6814 127.3C38.1747 127.007 38.8147 126.767 39.6014 126.58C40.3947 126.393 41.3681 126.287 42.5214 126.26V125.52C42.5214 124.753 42.3581 124.18 42.0314 123.8C41.7047 123.42 41.2247 123.23 40.5914 123.23C40.1647 123.23 39.8047 123.283 39.5114 123.39C39.2247 123.497 38.9747 123.617 38.7614 123.75C38.5547 123.877 38.3714 123.993 38.2114 124.1C38.0581 124.207 37.8981 124.26 37.7314 124.26C37.5981 124.26 37.4814 124.223 37.3814 124.15C37.2881 124.077 37.2114 123.99 37.1514 123.89L36.8014 123.26ZM48.8719 123.25C49.0919 123.017 49.3219 122.803 49.5619 122.61C49.8019 122.417 50.0552 122.253 50.3219 122.12C50.5952 121.98 50.8852 121.873 51.1919 121.8C51.5052 121.72 51.8385 121.68 52.1919 121.68C52.7519 121.68 53.2419 121.773 53.6619 121.96C54.0885 122.147 54.4452 122.41 54.7319 122.75C55.0185 123.083 55.2352 123.487 55.3819 123.96C55.5285 124.433 55.6019 124.957 55.6019 125.53V132H53.6419V125.53C53.6419 124.803 53.4752 124.24 53.1419 123.84C52.8085 123.433 52.2985 123.23 51.6119 123.23C51.1119 123.23 50.6419 123.35 50.2019 123.59C49.7685 123.823 49.3652 124.143 48.9919 124.55V132H47.0419V121.84H48.2119C48.4852 121.84 48.6552 121.97 48.7219 122.23L48.8719 123.25ZM60.2333 117.24V132H58.2733V117.24H60.2333ZM65.0584 121.84V132H63.1084V121.84H65.0584ZM65.4284 118.7C65.4284 118.88 65.3918 119.053 65.3184 119.22C65.2451 119.38 65.1451 119.523 65.0184 119.65C64.8984 119.77 64.7551 119.867 64.5884 119.94C64.4218 120.007 64.2484 120.04 64.0684 120.04C63.8884 120.04 63.7184 120.007 63.5584 119.94C63.3984 119.867 63.2551 119.77 63.1284 119.65C63.0084 119.523 62.9118 119.38 62.8384 119.22C62.7718 119.053 62.7384 118.88 62.7384 118.7C62.7384 118.513 62.7718 118.34 62.8384 118.18C62.9118 118.013 63.0084 117.87 63.1284 117.75C63.2551 117.623 63.3984 117.527 63.5584 117.46C63.7184 117.387 63.8884 117.35 64.0684 117.35C64.2484 117.35 64.4218 117.387 64.5884 117.46C64.7551 117.527 64.8984 117.623 65.0184 117.75C65.1451 117.87 65.2451 118.013 65.3184 118.18C65.3918 118.34 65.4284 118.513 65.4284 118.7ZM69.7117 123.25C69.9317 123.017 70.1617 122.803 70.4017 122.61C70.6417 122.417 70.8951 122.253 71.1617 122.12C71.4351 121.98 71.7251 121.873 72.0317 121.8C72.3451 121.72 72.6784 121.68 73.0317 121.68C73.5917 121.68 74.0817 121.773 74.5017 121.96C74.9284 122.147 75.2851 122.41 75.5717 122.75C75.8584 123.083 76.0751 123.487 76.2217 123.96C76.3684 124.433 76.4417 124.957 76.4417 125.53V132H74.4817V125.53C74.4817 124.803 74.3151 124.24 73.9817 123.84C73.6484 123.433 73.1384 123.23 72.4517 123.23C71.9517 123.23 71.4817 123.35 71.0417 123.59C70.6084 123.823 70.2051 124.143 69.8317 124.55V132H67.8817V121.84H69.0517C69.3251 121.84 69.4951 121.97 69.5617 122.23L69.7117 123.25ZM85.8031 125.79C85.8031 125.403 85.7465 125.047 85.6331 124.72C85.5265 124.393 85.3665 124.11 85.1531 123.87C84.9398 123.63 84.6798 123.443 84.3731 123.31C84.0665 123.177 83.7131 123.11 83.3131 123.11C82.4931 123.11 81.8465 123.347 81.3731 123.82C80.9065 124.293 80.6098 124.95 80.4831 125.79H85.8031ZM87.4131 130.55C87.1731 130.83 86.8965 131.073 86.5831 131.28C86.2698 131.48 85.9365 131.643 85.5831 131.77C85.2298 131.897 84.8631 131.99 84.4831 132.05C84.1098 132.11 83.7398 132.14 83.3731 132.14C82.6731 132.14 82.0231 132.023 81.4231 131.79C80.8298 131.55 80.3131 131.203 79.8731 130.75C79.4398 130.29 79.0998 129.723 78.8531 129.05C78.6131 128.37 78.4931 127.59 78.4931 126.71C78.4931 126.003 78.6031 125.347 78.8231 124.74C79.0431 124.127 79.3565 123.593 79.7631 123.14C80.1765 122.687 80.6798 122.33 81.2731 122.07C81.8665 121.81 82.5331 121.68 83.2731 121.68C83.8931 121.68 84.4631 121.783 84.9831 121.99C85.5098 122.19 85.9631 122.483 86.3431 122.87C86.7231 123.257 87.0198 123.733 87.2331 124.3C87.4531 124.867 87.5631 125.513 87.5631 126.24C87.5631 126.54 87.5298 126.743 87.4631 126.85C87.3965 126.95 87.2731 127 87.0931 127H80.4331C80.4531 127.607 80.5398 128.137 80.6931 128.59C80.8465 129.037 81.0565 129.41 81.3231 129.71C81.5965 130.01 81.9198 130.233 82.2931 130.38C82.6665 130.527 83.0831 130.6 83.5431 130.6C83.9765 130.6 84.3498 130.55 84.6631 130.45C84.9831 130.35 85.2565 130.243 85.4831 130.13C85.7165 130.01 85.9098 129.9 86.0631 129.8C86.2231 129.7 86.3631 129.65 86.4831 129.65C86.6431 129.65 86.7665 129.71 86.8531 129.83L87.4131 130.55ZM95.6491 123.59C95.5957 123.677 95.5391 123.74 95.4791 123.78C95.4191 123.813 95.3424 123.83 95.2491 123.83C95.1424 123.83 95.0224 123.793 94.8891 123.72C94.7624 123.647 94.6057 123.567 94.4191 123.48C94.2391 123.393 94.0257 123.313 93.7791 123.24C93.5324 123.167 93.2391 123.13 92.8991 123.13C92.6191 123.13 92.3624 123.167 92.1291 123.24C91.9024 123.307 91.7091 123.403 91.5491 123.53C91.3891 123.65 91.2657 123.797 91.1791 123.97C91.0924 124.137 91.0491 124.317 91.0491 124.51C91.0491 124.763 91.1224 124.973 91.2691 125.14C91.4224 125.307 91.6191 125.45 91.8591 125.57C92.1057 125.69 92.3824 125.8 92.6891 125.9C93.0024 125.993 93.3191 126.093 93.6391 126.2C93.9657 126.307 94.2824 126.43 94.5891 126.57C94.9024 126.703 95.1791 126.873 95.4191 127.08C95.6657 127.28 95.8624 127.523 96.0091 127.81C96.1624 128.097 96.2391 128.447 96.2391 128.86C96.2391 129.333 96.1524 129.773 95.9791 130.18C95.8124 130.58 95.5624 130.927 95.2291 131.22C94.9024 131.513 94.4957 131.743 94.0091 131.91C93.5224 132.077 92.9657 132.16 92.3391 132.16C91.6391 132.16 90.9924 132.043 90.3991 131.81C89.8057 131.577 89.3091 131.28 88.9091 130.92L89.3691 130.17C89.4224 130.077 89.4891 130.007 89.5691 129.96C89.6491 129.907 89.7557 129.88 89.8891 129.88C90.0157 129.88 90.1457 129.927 90.2791 130.02C90.4124 130.113 90.5724 130.217 90.7591 130.33C90.9457 130.437 91.1724 130.537 91.4391 130.63C91.7057 130.717 92.0391 130.76 92.4391 130.76C92.7724 130.76 93.0624 130.72 93.3091 130.64C93.5557 130.553 93.7591 130.44 93.9191 130.3C94.0857 130.153 94.2091 129.987 94.2891 129.8C94.3691 129.613 94.4091 129.417 94.4091 129.21C94.4091 128.943 94.3324 128.723 94.1791 128.55C94.0324 128.37 93.8357 128.217 93.5891 128.09C93.3491 127.963 93.0724 127.853 92.7591 127.76C92.4457 127.667 92.1257 127.567 91.7991 127.46C91.4724 127.353 91.1524 127.23 90.8391 127.09C90.5257 126.95 90.2457 126.773 89.9991 126.56C89.7591 126.347 89.5624 126.087 89.4091 125.78C89.2624 125.473 89.1891 125.1 89.1891 124.66C89.1891 124.267 89.2691 123.89 89.4291 123.53C89.5957 123.17 89.8324 122.853 90.1391 122.58C90.4524 122.307 90.8357 122.09 91.2891 121.93C91.7491 121.763 92.2724 121.68 92.8591 121.68C93.5324 121.68 94.1391 121.787 94.6791 122C95.2257 122.213 95.6924 122.507 96.0791 122.88L95.6491 123.59ZM104.34 123.59C104.287 123.677 104.23 123.74 104.17 123.78C104.11 123.813 104.034 123.83 103.94 123.83C103.834 123.83 103.714 123.793 103.58 123.72C103.454 123.647 103.297 123.567 103.11 123.48C102.93 123.393 102.717 123.313 102.47 123.24C102.224 123.167 101.93 123.13 101.59 123.13C101.31 123.13 101.054 123.167 100.82 123.24C100.594 123.307 100.4 123.403 100.24 123.53C100.08 123.65 99.9571 123.797 99.8705 123.97C99.7838 124.137 99.7405 124.317 99.7405 124.51C99.7405 124.763 99.8138 124.973 99.9605 125.14C100.114 125.307 100.31 125.45 100.55 125.57C100.797 125.69 101.074 125.8 101.38 125.9C101.694 125.993 102.01 126.093 102.33 126.2C102.657 126.307 102.974 126.43 103.28 126.57C103.594 126.703 103.87 126.873 104.11 127.08C104.357 127.28 104.554 127.523 104.7 127.81C104.854 128.097 104.93 128.447 104.93 128.86C104.93 129.333 104.844 129.773 104.67 130.18C104.504 130.58 104.254 130.927 103.92 131.22C103.594 131.513 103.187 131.743 102.7 131.91C102.214 132.077 101.657 132.16 101.03 132.16C100.33 132.16 99.6838 132.043 99.0905 131.81C98.4971 131.577 98.0005 131.28 97.6005 130.92L98.0605 130.17C98.1138 130.077 98.1805 130.007 98.2605 129.96C98.3405 129.907 98.4471 129.88 98.5805 129.88C98.7071 129.88 98.8371 129.927 98.9705 130.02C99.1038 130.113 99.2638 130.217 99.4505 130.33C99.6371 130.437 99.8638 130.537 100.13 130.63C100.397 130.717 100.73 130.76 101.13 130.76C101.464 130.76 101.754 130.72 102 130.64C102.247 130.553 102.45 130.44 102.61 130.3C102.777 130.153 102.9 129.987 102.98 129.8C103.06 129.613 103.1 129.417 103.1 129.21C103.1 128.943 103.024 128.723 102.87 128.55C102.724 128.37 102.527 128.217 102.28 128.09C102.04 127.963 101.764 127.853 101.45 127.76C101.137 127.667 100.817 127.567 100.49 127.46C100.164 127.353 99.8438 127.23 99.5305 127.09C99.2171 126.95 98.9371 126.773 98.6905 126.56C98.4505 126.347 98.2538 126.087 98.1005 125.78C97.9538 125.473 97.8805 125.1 97.8805 124.66C97.8805 124.267 97.9605 123.89 98.1205 123.53C98.2871 123.17 98.5238 122.853 98.8305 122.58C99.1438 122.307 99.5271 122.09 99.9805 121.93C100.44 121.763 100.964 121.68 101.55 121.68C102.224 121.68 102.83 121.787 103.37 122C103.917 122.213 104.384 122.507 104.77 122.88L104.34 123.59Z" fill="#5039A9"/>
</svg>
