<svg width="105" height="141" viewBox="0 0 105 141" fill="none" xmlns="http://www.w3.org/2000/svg">
<path d="M18.68 130.27L18.67 132H9.77V117.64H18.67V119.37H11.91V123.92H17.35V125.59H11.91V130.27H18.68ZM22.8348 117.24V132H20.8748V117.24H22.8348ZM32.35 125.79C32.35 125.403 32.2933 125.047 32.18 124.72C32.0733 124.393 31.9133 124.11 31.7 123.87C31.4867 123.63 31.2267 123.443 30.92 123.31C30.6133 123.177 30.26 123.11 29.86 123.11C29.04 123.11 28.3933 123.347 27.92 123.82C27.4533 124.293 27.1567 124.95 27.03 125.79H32.35ZM33.96 130.55C33.72 130.83 33.4433 131.073 33.13 131.28C32.8167 131.48 32.4833 131.643 32.13 131.77C31.7767 131.897 31.41 131.99 31.03 132.05C30.6567 132.11 30.2867 132.14 29.92 132.14C29.22 132.14 28.57 132.023 27.97 131.79C27.3767 131.55 26.86 131.203 26.42 130.75C25.9867 130.29 25.6467 129.723 25.4 129.05C25.16 128.37 25.04 127.59 25.04 126.71C25.04 126.003 25.15 125.347 25.37 124.74C25.59 124.127 25.9033 123.593 26.31 123.14C26.7233 122.687 27.2267 122.33 27.82 122.07C28.4133 121.81 29.08 121.68 29.82 121.68C30.44 121.68 31.01 121.783 31.53 121.99C32.0567 122.19 32.51 122.483 32.89 122.87C33.27 123.257 33.5667 123.733 33.78 124.3C34 124.867 34.11 125.513 34.11 126.24C34.11 126.54 34.0767 126.743 34.01 126.85C33.9433 126.95 33.82 127 33.64 127H26.98C27 127.607 27.0867 128.137 27.24 128.59C27.3933 129.037 27.6033 129.41 27.87 129.71C28.1433 130.01 28.4667 130.233 28.84 130.38C29.2133 130.527 29.63 130.6 30.09 130.6C30.5233 130.6 30.8967 130.55 31.21 130.45C31.53 130.35 31.8033 130.243 32.03 130.13C32.2633 130.01 32.4567 129.9 32.61 129.8C32.77 129.7 32.91 129.65 33.03 129.65C33.19 129.65 33.3133 129.71 33.4 129.83L33.96 130.55ZM43.3259 123.74C43.2659 123.813 43.2059 123.873 43.1459 123.92C43.0926 123.96 43.0126 123.98 42.9059 123.98C42.7993 123.98 42.6859 123.94 42.5659 123.86C42.4526 123.773 42.3059 123.683 42.1259 123.59C41.9526 123.49 41.7393 123.4 41.4859 123.32C41.2393 123.233 40.9326 123.19 40.5659 123.19C40.0859 123.19 39.6626 123.277 39.2959 123.45C38.9293 123.623 38.6226 123.87 38.3759 124.19C38.1359 124.51 37.9526 124.9 37.8259 125.36C37.6993 125.82 37.6359 126.337 37.6359 126.91C37.6359 127.503 37.7026 128.033 37.8359 128.5C37.9693 128.96 38.1593 129.35 38.4059 129.67C38.6526 129.983 38.9526 130.223 39.3059 130.39C39.6593 130.55 40.0526 130.63 40.4859 130.63C40.9059 130.63 41.2526 130.58 41.5259 130.48C41.7993 130.373 42.0259 130.26 42.2059 130.14C42.3859 130.02 42.5359 129.91 42.6559 129.81C42.7759 129.703 42.8993 129.65 43.0259 129.65C43.1859 129.65 43.3093 129.71 43.3959 129.83L43.9559 130.55C43.7226 130.837 43.4593 131.08 43.1659 131.28C42.8793 131.48 42.5726 131.643 42.2459 131.77C41.9193 131.897 41.5759 131.99 41.2159 132.05C40.8626 132.11 40.5026 132.14 40.1359 132.14C39.5026 132.14 38.9093 132.023 38.3559 131.79C37.8093 131.557 37.3326 131.217 36.9259 130.77C36.5259 130.323 36.2093 129.777 35.9759 129.13C35.7426 128.477 35.6259 127.737 35.6259 126.91C35.6259 126.157 35.7293 125.46 35.9359 124.82C36.1493 124.18 36.4593 123.63 36.8659 123.17C37.2793 122.703 37.7859 122.34 38.3859 122.08C38.9859 121.813 39.6726 121.68 40.4459 121.68C41.1726 121.68 41.8126 121.797 42.3659 122.03C42.9193 122.263 43.4126 122.593 43.8459 123.02L43.3259 123.74ZM48.9563 132.16C48.1363 132.16 47.5029 131.93 47.0563 131.47C46.6163 131.01 46.3963 130.353 46.3963 129.5V123.42H45.2163C45.1029 123.42 45.0063 123.387 44.9263 123.32C44.8529 123.247 44.8163 123.14 44.8163 123V122.21L46.4663 121.98L46.9062 118.95C46.9329 118.837 46.9829 118.75 47.0563 118.69C47.1363 118.623 47.2363 118.59 47.3563 118.59H48.3463V122H51.2263V123.42H48.3463V129.37C48.3463 129.77 48.4429 130.07 48.6363 130.27C48.8363 130.463 49.0896 130.56 49.3963 130.56C49.5763 130.56 49.7296 130.537 49.8563 130.49C49.9896 130.443 50.1029 130.393 50.1963 130.34C50.2896 130.28 50.3696 130.227 50.4363 130.18C50.5029 130.133 50.5629 130.11 50.6163 130.11C50.6829 130.11 50.7329 130.127 50.7663 130.16C50.8063 130.187 50.8463 130.233 50.8863 130.3L51.4663 131.24C51.1463 131.533 50.7663 131.76 50.3263 131.92C49.8863 132.08 49.4296 132.16 48.9563 132.16ZM54.8623 123.79C55.189 123.123 55.5823 122.6 56.0423 122.22C56.5023 121.84 57.0557 121.65 57.7023 121.65C57.9223 121.65 58.129 121.677 58.3223 121.73C58.5223 121.777 58.6957 121.85 58.8423 121.95L58.7123 123.42C58.6657 123.6 58.5557 123.69 58.3823 123.69C58.289 123.69 58.149 123.673 57.9623 123.64C57.7757 123.6 57.5757 123.58 57.3623 123.58C57.049 123.58 56.7723 123.627 56.5323 123.72C56.2923 123.807 56.0757 123.94 55.8823 124.12C55.6957 124.293 55.529 124.51 55.3823 124.77C55.2357 125.023 55.099 125.313 54.9723 125.64V132H53.0223V121.84H54.1423C54.3557 121.84 54.499 121.88 54.5723 121.96C54.6523 122.033 54.709 122.167 54.7423 122.36L54.8623 123.79ZM62.3866 121.84V132H60.4366V121.84H62.3866ZM62.7566 118.7C62.7566 118.88 62.7199 119.053 62.6466 119.22C62.5732 119.38 62.4732 119.523 62.3466 119.65C62.2266 119.77 62.0832 119.867 61.9166 119.94C61.7499 120.007 61.5766 120.04 61.3966 120.04C61.2166 120.04 61.0466 120.007 60.8866 119.94C60.7266 119.867 60.5832 119.77 60.4566 119.65C60.3366 119.523 60.2399 119.38 60.1666 119.22C60.0999 119.053 60.0666 118.88 60.0666 118.7C60.0666 118.513 60.0999 118.34 60.1666 118.18C60.2399 118.013 60.3366 117.87 60.4566 117.75C60.5832 117.623 60.7266 117.527 60.8866 117.46C61.0466 117.387 61.2166 117.35 61.3966 117.35C61.5766 117.35 61.7499 117.387 61.9166 117.46C62.0832 117.527 62.2266 117.623 62.3466 117.75C62.4732 117.87 62.5732 118.013 62.6466 118.18C62.7199 118.34 62.7566 118.513 62.7566 118.7ZM72.3298 123.74C72.2698 123.813 72.2098 123.873 72.1498 123.92C72.0965 123.96 72.0165 123.98 71.9098 123.98C71.8032 123.98 71.6898 123.94 71.5698 123.86C71.4565 123.773 71.3098 123.683 71.1298 123.59C70.9565 123.49 70.7432 123.4 70.4898 123.32C70.2432 123.233 69.9365 123.19 69.5698 123.19C69.0898 123.19 68.6665 123.277 68.2998 123.45C67.9332 123.623 67.6265 123.87 67.3798 124.19C67.1398 124.51 66.9565 124.9 66.8298 125.36C66.7032 125.82 66.6398 126.337 66.6398 126.91C66.6398 127.503 66.7065 128.033 66.8398 128.5C66.9732 128.96 67.1632 129.35 67.4098 129.67C67.6565 129.983 67.9565 130.223 68.3098 130.39C68.6632 130.55 69.0565 130.63 69.4898 130.63C69.9098 130.63 70.2565 130.58 70.5298 130.48C70.8032 130.373 71.0298 130.26 71.2098 130.14C71.3898 130.02 71.5398 129.91 71.6598 129.81C71.7798 129.703 71.9032 129.65 72.0298 129.65C72.1898 129.65 72.3132 129.71 72.3998 129.83L72.9598 130.55C72.7265 130.837 72.4632 131.08 72.1698 131.28C71.8832 131.48 71.5765 131.643 71.2498 131.77C70.9232 131.897 70.5798 131.99 70.2198 132.05C69.8665 132.11 69.5065 132.14 69.1398 132.14C68.5065 132.14 67.9132 132.023 67.3598 131.79C66.8132 131.557 66.3365 131.217 65.9298 130.77C65.5298 130.323 65.2132 129.777 64.9798 129.13C64.7465 128.477 64.6298 127.737 64.6298 126.91C64.6298 126.157 64.7332 125.46 64.9398 124.82C65.1532 124.18 65.4632 123.63 65.8698 123.17C66.2832 122.703 66.7898 122.34 67.3898 122.08C67.9898 121.813 68.6765 121.68 69.4498 121.68C70.1765 121.68 70.8165 121.797 71.3698 122.03C71.9232 122.263 72.4165 122.593 72.8498 123.02L72.3298 123.74ZM76.8202 121.84V132H74.8702V121.84H76.8202ZM77.1902 118.7C77.1902 118.88 77.1535 119.053 77.0802 119.22C77.0068 119.38 76.9068 119.523 76.7802 119.65C76.6602 119.77 76.5168 119.867 76.3502 119.94C76.1835 120.007 76.0102 120.04 75.8302 120.04C75.6502 120.04 75.4802 120.007 75.3202 119.94C75.1602 119.867 75.0168 119.77 74.8902 119.65C74.7702 119.523 74.6735 119.38 74.6002 119.22C74.5335 119.053 74.5002 118.88 74.5002 118.7C74.5002 118.513 74.5335 118.34 74.6002 118.18C74.6735 118.013 74.7702 117.87 74.8902 117.75C75.0168 117.623 75.1602 117.527 75.3202 117.46C75.4802 117.387 75.6502 117.35 75.8302 117.35C76.0102 117.35 76.1835 117.387 76.3502 117.46C76.5168 117.527 76.6602 117.623 76.7802 117.75C76.9068 117.87 77.0068 118.013 77.0802 118.18C77.1535 118.34 77.1902 118.513 77.1902 118.7ZM82.8234 132.16C82.0034 132.16 81.3701 131.93 80.9234 131.47C80.4834 131.01 80.2634 130.353 80.2634 129.5V123.42H79.0834C78.9701 123.42 78.8734 123.387 78.7934 123.32C78.7201 123.247 78.6834 123.14 78.6834 123V122.21L80.3334 121.98L80.7734 118.95C80.8001 118.837 80.8501 118.75 80.9234 118.69C81.0034 118.623 81.1034 118.59 81.2234 118.59H82.2134V122H85.0934V123.42H82.2134V129.37C82.2134 129.77 82.3101 130.07 82.5034 130.27C82.7034 130.463 82.9568 130.56 83.2634 130.56C83.4434 130.56 83.5968 130.537 83.7234 130.49C83.8568 130.443 83.9701 130.393 84.0634 130.34C84.1568 130.28 84.2368 130.227 84.3034 130.18C84.3701 130.133 84.4301 130.11 84.4834 130.11C84.5501 130.11 84.6001 130.127 84.6334 130.16C84.6734 130.187 84.7134 130.233 84.7534 130.3L85.3334 131.24C85.0134 131.533 84.6334 131.76 84.1934 131.92C83.7534 132.08 83.2968 132.16 82.8234 132.16ZM95.7695 121.84L90.1295 134.95C90.0695 135.097 89.9895 135.21 89.8895 135.29C89.7895 135.37 89.6429 135.41 89.4495 135.41H87.9995L89.8595 131.36L85.6895 121.84H87.3895C87.5562 121.84 87.6862 121.88 87.7795 121.96C87.8729 122.04 87.9395 122.13 87.9795 122.23L90.5595 128.33C90.6129 128.483 90.6629 128.64 90.7095 128.8C90.7629 128.953 90.8062 129.107 90.8395 129.26C90.8862 129.1 90.9362 128.943 90.9895 128.79C91.0429 128.63 91.0995 128.473 91.1595 128.32L93.6495 122.23C93.6962 122.117 93.7695 122.023 93.8695 121.95C93.9695 121.877 94.0829 121.84 94.2095 121.84H95.7695Z" fill="#5039A9"/>
<path fill-rule="evenodd" clip-rule="evenodd" d="M52.5 105C81.4949 105 105 81.4949 105 52.5C105 23.5051 81.4949 0 52.5 0C23.5051 0 0 23.5051 0 52.5C0 81.4949 23.5051 105 52.5 105ZM52.5 100.625C79.0787 100.625 100.625 79.0787 100.625 52.5C100.625 25.9213 79.0787 4.375 52.5 4.375C25.9213 4.375 4.375 25.9213 4.375 52.5C4.375 79.0787 25.9213 100.625 52.5 100.625Z" fill="#5039A9"/>
<path d="M36 27V57.8H45.9V83L69 49.4H55.8L69 27H36Z" fill="#5039A9"/>
</svg>
