<svg width="105" height="163" viewBox="0 0 105 163" fill="none" xmlns="http://www.w3.org/2000/svg">
<path d="M22.7991 136.27L22.7891 138H13.8891V123.64H22.7891V125.37H16.0291V129.92H21.4691V131.59H16.0291V136.27H22.7991ZM26.954 123.24V138H24.994V123.24H26.954ZM36.4691 131.79C36.4691 131.403 36.4125 131.047 36.2991 130.72C36.1925 130.393 36.0325 130.11 35.8191 129.87C35.6058 129.63 35.3458 129.443 35.0391 129.31C34.7325 129.177 34.3791 129.11 33.9791 129.11C33.1591 129.11 32.5125 129.347 32.0391 129.82C31.5725 130.293 31.2758 130.95 31.1491 131.79H36.4691ZM38.0791 136.55C37.8391 136.83 37.5625 137.073 37.2491 137.28C36.9358 137.48 36.6025 137.643 36.2491 137.77C35.8958 137.897 35.5291 137.99 35.1491 138.05C34.7758 138.11 34.4058 138.14 34.0391 138.14C33.3391 138.14 32.6891 138.023 32.0891 137.79C31.4958 137.55 30.9791 137.203 30.5391 136.75C30.1058 136.29 29.7658 135.723 29.5191 135.05C29.2791 134.37 29.1591 133.59 29.1591 132.71C29.1591 132.003 29.2691 131.347 29.4891 130.74C29.7091 130.127 30.0225 129.593 30.4291 129.14C30.8425 128.687 31.3458 128.33 31.9391 128.07C32.5325 127.81 33.1991 127.68 33.9391 127.68C34.5591 127.68 35.1291 127.783 35.6491 127.99C36.1758 128.19 36.6291 128.483 37.0091 128.87C37.3891 129.257 37.6858 129.733 37.8991 130.3C38.1191 130.867 38.2291 131.513 38.2291 132.24C38.2291 132.54 38.1958 132.743 38.1291 132.85C38.0625 132.95 37.9391 133 37.7591 133H31.0991C31.1191 133.607 31.2058 134.137 31.3591 134.59C31.5125 135.037 31.7225 135.41 31.9891 135.71C32.2625 136.01 32.5858 136.233 32.9591 136.38C33.3325 136.527 33.7491 136.6 34.2091 136.6C34.6425 136.6 35.0158 136.55 35.3291 136.45C35.6491 136.35 35.9225 136.243 36.1491 136.13C36.3825 136.01 36.5758 135.9 36.7291 135.8C36.8891 135.7 37.0291 135.65 37.1491 135.65C37.3091 135.65 37.4325 135.71 37.5191 135.83L38.0791 136.55ZM48.9107 127.84L44.7907 138H43.0307L38.9107 127.84H40.5207C40.674 127.84 40.8007 127.877 40.9007 127.95C41.0007 128.023 41.0674 128.117 41.1007 128.23L43.5307 134.47C43.6174 134.73 43.6907 134.99 43.7507 135.25C43.8174 135.503 43.8774 135.757 43.9307 136.01C43.984 135.757 44.044 135.503 44.1107 135.25C44.1774 134.997 44.2574 134.737 44.3507 134.47L46.8107 128.23C46.8507 128.117 46.9207 128.023 47.0207 127.95C47.1207 127.877 47.2407 127.84 47.3807 127.84H48.9107ZM55.6874 133.49C54.8941 133.517 54.2208 133.58 53.6674 133.68C53.1141 133.773 52.6641 133.9 52.3174 134.06C51.9708 134.22 51.7208 134.41 51.5674 134.63C51.4141 134.843 51.3374 135.083 51.3374 135.35C51.3374 135.603 51.3774 135.823 51.4574 136.01C51.5441 136.19 51.6574 136.34 51.7974 136.46C51.9441 136.573 52.1141 136.657 52.3074 136.71C52.5008 136.763 52.7108 136.79 52.9374 136.79C53.2374 136.79 53.5108 136.76 53.7574 136.7C54.0108 136.64 54.2474 136.557 54.4674 136.45C54.6874 136.337 54.8974 136.2 55.0974 136.04C55.2974 135.88 55.4941 135.697 55.6874 135.49V133.49ZM49.9674 129.26C50.5341 128.72 51.1474 128.317 51.8074 128.05C52.4741 127.783 53.2041 127.65 53.9974 127.65C54.5774 127.65 55.0908 127.747 55.5374 127.94C55.9841 128.127 56.3608 128.39 56.6674 128.73C56.9741 129.07 57.2041 129.477 57.3574 129.95C57.5174 130.423 57.5974 130.947 57.5974 131.52V138H56.7274C56.5341 138 56.3874 137.97 56.2874 137.91C56.1874 137.843 56.1074 137.723 56.0474 137.55L55.8374 136.66C55.5774 136.9 55.3208 137.113 55.0674 137.3C54.8141 137.48 54.5474 137.637 54.2674 137.77C53.9941 137.897 53.7008 137.993 53.3874 138.06C53.0741 138.127 52.7274 138.16 52.3474 138.16C51.9474 138.16 51.5708 138.107 51.2174 138C50.8708 137.887 50.5674 137.717 50.3074 137.49C50.0474 137.263 49.8408 136.98 49.6874 136.64C49.5408 136.3 49.4674 135.903 49.4674 135.45C49.4674 135.05 49.5741 134.667 49.7874 134.3C50.0074 133.927 50.3608 133.593 50.8474 133.3C51.3408 133.007 51.9808 132.767 52.7674 132.58C53.5608 132.393 54.5341 132.287 55.6874 132.26V131.52C55.6874 130.753 55.5241 130.18 55.1974 129.8C54.8708 129.42 54.3908 129.23 53.7574 129.23C53.3308 129.23 52.9708 129.283 52.6774 129.39C52.3908 129.497 52.1408 129.617 51.9274 129.75C51.7208 129.877 51.5374 129.993 51.3774 130.1C51.2241 130.207 51.0641 130.26 50.8974 130.26C50.7641 130.26 50.6474 130.223 50.5474 130.15C50.4541 130.077 50.3774 129.99 50.3174 129.89L49.9674 129.26ZM63.2512 138.16C62.4312 138.16 61.7978 137.93 61.3512 137.47C60.9112 137.01 60.6912 136.353 60.6912 135.5V129.42H59.5112C59.3978 129.42 59.3012 129.387 59.2212 129.32C59.1478 129.247 59.1112 129.14 59.1112 129V128.21L60.7612 127.98L61.2012 124.95C61.2278 124.837 61.2778 124.75 61.3512 124.69C61.4312 124.623 61.5312 124.59 61.6512 124.59H62.6412V128H65.5212V129.42H62.6412V135.37C62.6412 135.77 62.7378 136.07 62.9312 136.27C63.1312 136.463 63.3845 136.56 63.6912 136.56C63.8712 136.56 64.0245 136.537 64.1512 136.49C64.2845 136.443 64.3978 136.393 64.4912 136.34C64.5845 136.28 64.6645 136.227 64.7312 136.18C64.7978 136.133 64.8578 136.11 64.9112 136.11C64.9778 136.11 65.0278 136.127 65.0612 136.16C65.1012 136.187 65.1412 136.233 65.1812 136.3L65.7612 137.24C65.4412 137.533 65.0612 137.76 64.6212 137.92C64.1812 138.08 63.7245 138.16 63.2512 138.16ZM71.5887 127.68C72.3353 127.68 73.0087 127.803 73.6087 128.05C74.2153 128.29 74.7287 128.64 75.1487 129.1C75.5753 129.553 75.902 130.103 76.1287 130.75C76.3553 131.39 76.4687 132.11 76.4687 132.91C76.4687 133.71 76.3553 134.433 76.1287 135.08C75.902 135.727 75.5753 136.277 75.1487 136.73C74.7287 137.183 74.2153 137.533 73.6087 137.78C73.0087 138.02 72.3353 138.14 71.5887 138.14C70.8353 138.14 70.1553 138.02 69.5487 137.78C68.9487 137.533 68.4353 137.183 68.0087 136.73C67.582 136.277 67.252 135.727 67.0187 135.08C66.792 134.433 66.6787 133.71 66.6787 132.91C66.6787 132.11 66.792 131.39 67.0187 130.75C67.252 130.103 67.582 129.553 68.0087 129.1C68.4353 128.64 68.9487 128.29 69.5487 128.05C70.1553 127.803 70.8353 127.68 71.5887 127.68ZM71.5887 136.62C72.5487 136.62 73.2653 136.297 73.7387 135.65C74.212 135.003 74.4487 134.093 74.4487 132.92C74.4487 131.747 74.212 130.837 73.7387 130.19C73.2653 129.537 72.5487 129.21 71.5887 129.21C70.6153 129.21 69.8887 129.537 69.4087 130.19C68.9353 130.837 68.6987 131.747 68.6987 132.92C68.6987 134.093 68.9353 135.003 69.4087 135.65C69.8887 136.297 70.6153 136.62 71.5887 136.62ZM80.4854 129.79C80.8121 129.123 81.2054 128.6 81.6654 128.22C82.1254 127.84 82.6787 127.65 83.3254 127.65C83.5454 127.65 83.7521 127.677 83.9454 127.73C84.1454 127.777 84.3187 127.85 84.4654 127.95L84.3354 129.42C84.2887 129.6 84.1787 129.69 84.0054 129.69C83.9121 129.69 83.7721 129.673 83.5854 129.64C83.3987 129.6 83.1987 129.58 82.9854 129.58C82.6721 129.58 82.3954 129.627 82.1554 129.72C81.9154 129.807 81.6987 129.94 81.5054 130.12C81.3187 130.293 81.1521 130.51 81.0054 130.77C80.8587 131.023 80.7221 131.313 80.5954 131.64V138H78.6454V127.84H79.7654C79.9787 127.84 80.1221 127.88 80.1954 127.96C80.2754 128.033 80.3321 128.167 80.3654 128.36L80.4854 129.79ZM86.3093 138.16C86.216 138.413 86.0693 138.6 85.8693 138.72C85.6693 138.847 85.4626 138.91 85.2493 138.91H84.4293L90.3893 123.95C90.4826 123.723 90.616 123.55 90.7893 123.43C90.9693 123.303 91.176 123.24 91.4093 123.24H92.2393L86.3093 138.16ZM23.1019 160.27L23.0919 162H14.1919V147.64H23.0919V149.37H16.3319V153.92H21.7719V155.59H16.3319V160.27H23.1019ZM31.1686 153.59C31.1153 153.677 31.0586 153.74 30.9986 153.78C30.9386 153.813 30.8619 153.83 30.7686 153.83C30.6619 153.83 30.5419 153.793 30.4086 153.72C30.2819 153.647 30.1253 153.567 29.9386 153.48C29.7586 153.393 29.5453 153.313 29.2986 153.24C29.0519 153.167 28.7586 153.13 28.4186 153.13C28.1386 153.13 27.8819 153.167 27.6486 153.24C27.4219 153.307 27.2286 153.403 27.0686 153.53C26.9086 153.65 26.7853 153.797 26.6986 153.97C26.6119 154.137 26.5686 154.317 26.5686 154.51C26.5686 154.763 26.6419 154.973 26.7886 155.14C26.9419 155.307 27.1386 155.45 27.3786 155.57C27.6253 155.69 27.9019 155.8 28.2086 155.9C28.5219 155.993 28.8386 156.093 29.1586 156.2C29.4853 156.307 29.8019 156.43 30.1086 156.57C30.4219 156.703 30.6986 156.873 30.9386 157.08C31.1853 157.28 31.3819 157.523 31.5286 157.81C31.6819 158.097 31.7586 158.447 31.7586 158.86C31.7586 159.333 31.6719 159.773 31.4986 160.18C31.3319 160.58 31.0819 160.927 30.7486 161.22C30.4219 161.513 30.0153 161.743 29.5286 161.91C29.0419 162.077 28.4853 162.16 27.8586 162.16C27.1586 162.16 26.5119 162.043 25.9186 161.81C25.3253 161.577 24.8286 161.28 24.4286 160.92L24.8886 160.17C24.9419 160.077 25.0086 160.007 25.0886 159.96C25.1686 159.907 25.2753 159.88 25.4086 159.88C25.5353 159.88 25.6653 159.927 25.7986 160.02C25.9319 160.113 26.0919 160.217 26.2786 160.33C26.4653 160.437 26.6919 160.537 26.9586 160.63C27.2253 160.717 27.5586 160.76 27.9586 160.76C28.2919 160.76 28.5819 160.72 28.8286 160.64C29.0753 160.553 29.2786 160.44 29.4386 160.3C29.6053 160.153 29.7286 159.987 29.8086 159.8C29.8886 159.613 29.9286 159.417 29.9286 159.21C29.9286 158.943 29.8519 158.723 29.6986 158.55C29.5519 158.37 29.3553 158.217 29.1086 158.09C28.8686 157.963 28.5919 157.853 28.2786 157.76C27.9653 157.667 27.6453 157.567 27.3186 157.46C26.9919 157.353 26.6719 157.23 26.3586 157.09C26.0453 156.95 25.7653 156.773 25.5186 156.56C25.2786 156.347 25.0819 156.087 24.9286 155.78C24.7819 155.473 24.7086 155.1 24.7086 154.66C24.7086 154.267 24.7886 153.89 24.9486 153.53C25.1153 153.17 25.3519 152.853 25.6586 152.58C25.9719 152.307 26.3553 152.09 26.8086 151.93C27.2686 151.763 27.7919 151.68 28.3786 151.68C29.0519 151.68 29.6586 151.787 30.1986 152C30.7453 152.213 31.2119 152.507 31.5986 152.88L31.1686 153.59ZM40.99 153.74C40.93 153.813 40.87 153.873 40.81 153.92C40.7567 153.96 40.6767 153.98 40.57 153.98C40.4633 153.98 40.35 153.94 40.23 153.86C40.1167 153.773 39.97 153.683 39.79 153.59C39.6167 153.49 39.4033 153.4 39.15 153.32C38.9033 153.233 38.5967 153.19 38.23 153.19C37.75 153.19 37.3267 153.277 36.96 153.45C36.5933 153.623 36.2867 153.87 36.04 154.19C35.8 154.51 35.6167 154.9 35.49 155.36C35.3633 155.82 35.3 156.337 35.3 156.91C35.3 157.503 35.3667 158.033 35.5 158.5C35.6333 158.96 35.8233 159.35 36.07 159.67C36.3167 159.983 36.6167 160.223 36.97 160.39C37.3233 160.55 37.7167 160.63 38.15 160.63C38.57 160.63 38.9167 160.58 39.19 160.48C39.4633 160.373 39.69 160.26 39.87 160.14C40.05 160.02 40.2 159.91 40.32 159.81C40.44 159.703 40.5633 159.65 40.69 159.65C40.85 159.65 40.9733 159.71 41.06 159.83L41.62 160.55C41.3867 160.837 41.1233 161.08 40.83 161.28C40.5433 161.48 40.2367 161.643 39.91 161.77C39.5833 161.897 39.24 161.99 38.88 162.05C38.5267 162.11 38.1667 162.14 37.8 162.14C37.1667 162.14 36.5733 162.023 36.02 161.79C35.4733 161.557 34.9967 161.217 34.59 160.77C34.19 160.323 33.8733 159.777 33.64 159.13C33.4067 158.477 33.29 157.737 33.29 156.91C33.29 156.157 33.3933 155.46 33.6 154.82C33.8133 154.18 34.1233 153.63 34.53 153.17C34.9433 152.703 35.45 152.34 36.05 152.08C36.65 151.813 37.3367 151.68 38.11 151.68C38.8367 151.68 39.4767 151.797 40.03 152.03C40.5833 152.263 41.0767 152.593 41.51 153.02L40.99 153.74ZM48.9003 157.49C48.107 157.517 47.4336 157.58 46.8803 157.68C46.327 157.773 45.877 157.9 45.5303 158.06C45.1836 158.22 44.9336 158.41 44.7803 158.63C44.627 158.843 44.5503 159.083 44.5503 159.35C44.5503 159.603 44.5903 159.823 44.6703 160.01C44.757 160.19 44.8703 160.34 45.0103 160.46C45.157 160.573 45.327 160.657 45.5203 160.71C45.7136 160.763 45.9236 160.79 46.1503 160.79C46.4503 160.79 46.7236 160.76 46.9703 160.7C47.2236 160.64 47.4603 160.557 47.6803 160.45C47.9003 160.337 48.1103 160.2 48.3103 160.04C48.5103 159.88 48.707 159.697 48.9003 159.49V157.49ZM43.1803 153.26C43.747 152.72 44.3603 152.317 45.0203 152.05C45.687 151.783 46.417 151.65 47.2103 151.65C47.7903 151.65 48.3036 151.747 48.7503 151.94C49.197 152.127 49.5736 152.39 49.8803 152.73C50.187 153.07 50.417 153.477 50.5703 153.95C50.7303 154.423 50.8103 154.947 50.8103 155.52V162H49.9403C49.747 162 49.6003 161.97 49.5003 161.91C49.4003 161.843 49.3203 161.723 49.2603 161.55L49.0503 160.66C48.7903 160.9 48.5336 161.113 48.2803 161.3C48.027 161.48 47.7603 161.637 47.4803 161.77C47.207 161.897 46.9136 161.993 46.6003 162.06C46.287 162.127 45.9403 162.16 45.5603 162.16C45.1603 162.16 44.7836 162.107 44.4303 162C44.0836 161.887 43.7803 161.717 43.5203 161.49C43.2603 161.263 43.0536 160.98 42.9003 160.64C42.7536 160.3 42.6803 159.903 42.6803 159.45C42.6803 159.05 42.787 158.667 43.0003 158.3C43.2203 157.927 43.5736 157.593 44.0603 157.3C44.5536 157.007 45.1936 156.767 45.9803 156.58C46.7736 156.393 47.747 156.287 48.9003 156.26V155.52C48.9003 154.753 48.737 154.18 48.4103 153.8C48.0836 153.42 47.6036 153.23 46.9703 153.23C46.5436 153.23 46.1836 153.283 45.8903 153.39C45.6036 153.497 45.3536 153.617 45.1403 153.75C44.9336 153.877 44.7503 153.993 44.5903 154.1C44.437 154.207 44.277 154.26 44.1103 154.26C43.977 154.26 43.8603 154.223 43.7603 154.15C43.667 154.077 43.5903 153.99 43.5303 153.89L43.1803 153.26ZM55.4208 147.24V162H53.4608V147.24H55.4208ZM63.6659 157.49C62.8726 157.517 62.1993 157.58 61.6459 157.68C61.0926 157.773 60.6426 157.9 60.2959 158.06C59.9493 158.22 59.6993 158.41 59.5459 158.63C59.3926 158.843 59.3159 159.083 59.3159 159.35C59.3159 159.603 59.3559 159.823 59.4359 160.01C59.5226 160.19 59.6359 160.34 59.7759 160.46C59.9226 160.573 60.0926 160.657 60.2859 160.71C60.4793 160.763 60.6893 160.79 60.9159 160.79C61.2159 160.79 61.4893 160.76 61.7359 160.7C61.9893 160.64 62.2259 160.557 62.4459 160.45C62.6659 160.337 62.8759 160.2 63.0759 160.04C63.2759 159.88 63.4726 159.697 63.6659 159.49V157.49ZM57.9459 153.26C58.5126 152.72 59.1259 152.317 59.7859 152.05C60.4526 151.783 61.1826 151.65 61.9759 151.65C62.5559 151.65 63.0693 151.747 63.5159 151.94C63.9626 152.127 64.3393 152.39 64.6459 152.73C64.9526 153.07 65.1826 153.477 65.3359 153.95C65.4959 154.423 65.5759 154.947 65.5759 155.52V162H64.7059C64.5126 162 64.3659 161.97 64.2659 161.91C64.1659 161.843 64.0859 161.723 64.0259 161.55L63.8159 160.66C63.5559 160.9 63.2993 161.113 63.0459 161.3C62.7926 161.48 62.5259 161.637 62.2459 161.77C61.9726 161.897 61.6793 161.993 61.3659 162.06C61.0526 162.127 60.7059 162.16 60.3259 162.16C59.9259 162.16 59.5493 162.107 59.1959 162C58.8493 161.887 58.5459 161.717 58.2859 161.49C58.0259 161.263 57.8193 160.98 57.6659 160.64C57.5193 160.3 57.4459 159.903 57.4459 159.45C57.4459 159.05 57.5526 158.667 57.7659 158.3C57.9859 157.927 58.3393 157.593 58.8259 157.3C59.3193 157.007 59.9593 156.767 60.7459 156.58C61.5393 156.393 62.5126 156.287 63.6659 156.26V155.52C63.6659 154.753 63.5026 154.18 63.1759 153.8C62.8493 153.42 62.3693 153.23 61.7359 153.23C61.3093 153.23 60.9493 153.283 60.6559 153.39C60.3693 153.497 60.1193 153.617 59.9059 153.75C59.6993 153.877 59.5159 153.993 59.3559 154.1C59.2026 154.207 59.0426 154.26 58.8759 154.26C58.7426 154.26 58.6259 154.223 58.5259 154.15C58.4326 154.077 58.3559 153.99 58.2959 153.89L57.9459 153.26ZM71.2297 162.16C70.4097 162.16 69.7764 161.93 69.3297 161.47C68.8897 161.01 68.6697 160.353 68.6697 159.5V153.42H67.4897C67.3764 153.42 67.2797 153.387 67.1997 153.32C67.1264 153.247 67.0897 153.14 67.0897 153V152.21L68.7397 151.98L69.1797 148.95C69.2064 148.837 69.2564 148.75 69.3297 148.69C69.4097 148.623 69.5097 148.59 69.6297 148.59H70.6197V152H73.4997V153.42H70.6197V159.37C70.6197 159.77 70.7164 160.07 70.9097 160.27C71.1097 160.463 71.363 160.56 71.6697 160.56C71.8497 160.56 72.003 160.537 72.1297 160.49C72.263 160.443 72.3764 160.393 72.4697 160.34C72.563 160.28 72.643 160.227 72.7097 160.18C72.7764 160.133 72.8364 160.11 72.8897 160.11C72.9564 160.11 73.0064 160.127 73.0397 160.16C73.0797 160.187 73.1197 160.233 73.1597 160.3L73.7397 161.24C73.4197 161.533 73.0397 161.76 72.5997 161.92C72.1597 162.08 71.703 162.16 71.2297 162.16ZM79.5672 151.68C80.3139 151.68 80.9872 151.803 81.5872 152.05C82.1939 152.29 82.7072 152.64 83.1272 153.1C83.5539 153.553 83.8805 154.103 84.1072 154.75C84.3339 155.39 84.4472 156.11 84.4472 156.91C84.4472 157.71 84.3339 158.433 84.1072 159.08C83.8805 159.727 83.5539 160.277 83.1272 160.73C82.7072 161.183 82.1939 161.533 81.5872 161.78C80.9872 162.02 80.3139 162.14 79.5672 162.14C78.8139 162.14 78.1339 162.02 77.5272 161.78C76.9272 161.533 76.4139 161.183 75.9872 160.73C75.5605 160.277 75.2305 159.727 74.9972 159.08C74.7705 158.433 74.6572 157.71 74.6572 156.91C74.6572 156.11 74.7705 155.39 74.9972 154.75C75.2305 154.103 75.5605 153.553 75.9872 153.1C76.4139 152.64 76.9272 152.29 77.5272 152.05C78.1339 151.803 78.8139 151.68 79.5672 151.68ZM79.5672 160.62C80.5272 160.62 81.2439 160.297 81.7172 159.65C82.1905 159.003 82.4272 158.093 82.4272 156.92C82.4272 155.747 82.1905 154.837 81.7172 154.19C81.2439 153.537 80.5272 153.21 79.5672 153.21C78.5939 153.21 77.8672 153.537 77.3872 154.19C76.9139 154.837 76.6772 155.747 76.6772 156.92C76.6772 158.093 76.9139 159.003 77.3872 159.65C77.8672 160.297 78.5939 160.62 79.5672 160.62ZM88.4639 153.79C88.7906 153.123 89.1839 152.6 89.6439 152.22C90.1039 151.84 90.6572 151.65 91.3039 151.65C91.5239 151.65 91.7306 151.677 91.9239 151.73C92.1239 151.777 92.2972 151.85 92.4439 151.95L92.3139 153.42C92.2672 153.6 92.1572 153.69 91.9839 153.69C91.8906 153.69 91.7506 153.673 91.5639 153.64C91.3772 153.6 91.1772 153.58 90.9639 153.58C90.6506 153.58 90.3739 153.627 90.1339 153.72C89.8939 153.807 89.6772 153.94 89.4839 154.12C89.2972 154.293 89.1306 154.51 88.9839 154.77C88.8372 155.023 88.7006 155.313 88.5739 155.64V162H86.6239V151.84H87.7439C87.9572 151.84 88.1006 151.88 88.1739 151.96C88.2539 152.033 88.3106 152.167 88.3439 152.36L88.4639 153.79Z" fill="#5039A9"/>
<path fill-rule="evenodd" clip-rule="evenodd" d="M52.5 105C81.4949 105 105 81.4949 105 52.5C105 23.5051 81.4949 0 52.5 0C23.5051 0 0 23.5051 0 52.5C0 81.4949 23.5051 105 52.5 105ZM52.5 100.625C79.0787 100.625 100.625 79.0787 100.625 52.5C100.625 25.9213 79.0787 4.375 52.5 4.375C25.9213 4.375 4.375 25.9213 4.375 52.5C4.375 79.0787 25.9213 100.625 52.5 100.625Z" fill="#5039A9"/>
<path d="M35.6667 68H48.4667L61.8 44H70.3333V36H57.5333L44.2 60H35.6667V68ZM29 76V28H77V76H29Z" fill="#5039A9"/>
</svg>
