<svg width="105" height="166" viewBox="0 0 105 166" fill="none" xmlns="http://www.w3.org/2000/svg">
<path d="M32.1205 125.42H27.5605V138H25.4405V125.42H20.8605V123.64H32.1205V125.42ZM33.4776 129.79C33.8042 129.123 34.1976 128.6 34.6576 128.22C35.1176 127.84 35.6709 127.65 36.3176 127.65C36.5376 127.65 36.7442 127.677 36.9376 127.73C37.1376 127.777 37.3109 127.85 37.4576 127.95L37.3276 129.42C37.2809 129.6 37.1709 129.69 36.9976 129.69C36.9042 129.69 36.7642 129.673 36.5776 129.64C36.3909 129.6 36.1909 129.58 35.9776 129.58C35.6642 129.58 35.3876 129.627 35.1476 129.72C34.9076 129.807 34.6909 129.94 34.4976 130.12C34.3109 130.293 34.1442 130.51 33.9976 130.77C33.8509 131.023 33.7142 131.313 33.5876 131.64V138H31.6376V127.84H32.7576C32.9709 127.84 33.1142 127.88 33.1876 127.96C33.2676 128.033 33.3242 128.167 33.3576 128.36L33.4776 129.79ZM45.3207 131.79C45.3207 131.403 45.264 131.047 45.1507 130.72C45.044 130.393 44.884 130.11 44.6707 129.87C44.4574 129.63 44.1974 129.443 43.8907 129.31C43.584 129.177 43.2307 129.11 42.8307 129.11C42.0107 129.11 41.364 129.347 40.8907 129.82C40.424 130.293 40.1274 130.95 40.0007 131.79H45.3207ZM46.9307 136.55C46.6907 136.83 46.414 137.073 46.1007 137.28C45.7874 137.48 45.454 137.643 45.1007 137.77C44.7474 137.897 44.3807 137.99 44.0007 138.05C43.6274 138.11 43.2574 138.14 42.8907 138.14C42.1907 138.14 41.5407 138.023 40.9407 137.79C40.3474 137.55 39.8307 137.203 39.3907 136.75C38.9574 136.29 38.6174 135.723 38.3707 135.05C38.1307 134.37 38.0107 133.59 38.0107 132.71C38.0107 132.003 38.1207 131.347 38.3407 130.74C38.5607 130.127 38.874 129.593 39.2807 129.14C39.694 128.687 40.1974 128.33 40.7907 128.07C41.384 127.81 42.0507 127.68 42.7907 127.68C43.4107 127.68 43.9807 127.783 44.5007 127.99C45.0274 128.19 45.4807 128.483 45.8607 128.87C46.2407 129.257 46.5374 129.733 46.7507 130.3C46.9707 130.867 47.0807 131.513 47.0807 132.24C47.0807 132.54 47.0474 132.743 46.9807 132.85C46.914 132.95 46.7907 133 46.6107 133H39.9507C39.9707 133.607 40.0574 134.137 40.2107 134.59C40.364 135.037 40.574 135.41 40.8407 135.71C41.114 136.01 41.4374 136.233 41.8107 136.38C42.184 136.527 42.6007 136.6 43.0607 136.6C43.494 136.6 43.8674 136.55 44.1807 136.45C44.5007 136.35 44.774 136.243 45.0007 136.13C45.234 136.01 45.4274 135.9 45.5807 135.8C45.7407 135.7 45.8807 135.65 46.0007 135.65C46.1607 135.65 46.284 135.71 46.3707 135.83L46.9307 136.55ZM55.9066 131.79C55.9066 131.403 55.85 131.047 55.7366 130.72C55.63 130.393 55.47 130.11 55.2566 129.87C55.0433 129.63 54.7833 129.443 54.4766 129.31C54.17 129.177 53.8166 129.11 53.4166 129.11C52.5966 129.11 51.95 129.347 51.4766 129.82C51.01 130.293 50.7133 130.95 50.5866 131.79H55.9066ZM57.5166 136.55C57.2766 136.83 57 137.073 56.6866 137.28C56.3733 137.48 56.04 137.643 55.6866 137.77C55.3333 137.897 54.9666 137.99 54.5866 138.05C54.2133 138.11 53.8433 138.14 53.4766 138.14C52.7766 138.14 52.1266 138.023 51.5266 137.79C50.9333 137.55 50.4166 137.203 49.9766 136.75C49.5433 136.29 49.2033 135.723 48.9566 135.05C48.7166 134.37 48.5966 133.59 48.5966 132.71C48.5966 132.003 48.7066 131.347 48.9266 130.74C49.1466 130.127 49.46 129.593 49.8666 129.14C50.28 128.687 50.7833 128.33 51.3766 128.07C51.97 127.81 52.6366 127.68 53.3766 127.68C53.9966 127.68 54.5666 127.783 55.0866 127.99C55.6133 128.19 56.0666 128.483 56.4466 128.87C56.8266 129.257 57.1233 129.733 57.3366 130.3C57.5566 130.867 57.6666 131.513 57.6666 132.24C57.6666 132.54 57.6333 132.743 57.5666 132.85C57.5 132.95 57.3766 133 57.1966 133H50.5366C50.5566 133.607 50.6433 134.137 50.7966 134.59C50.95 135.037 51.16 135.41 51.4266 135.71C51.7 136.01 52.0233 136.233 52.3966 136.38C52.77 136.527 53.1866 136.6 53.6466 136.6C54.08 136.6 54.4533 136.55 54.7666 136.45C55.0866 136.35 55.36 136.243 55.5866 136.13C55.82 136.01 56.0133 135.9 56.1666 135.8C56.3266 135.7 56.4666 135.65 56.5866 135.65C56.7466 135.65 56.87 135.71 56.9566 135.83L57.5166 136.55ZM65.7526 129.59C65.6992 129.677 65.6426 129.74 65.5826 129.78C65.5226 129.813 65.4459 129.83 65.3526 129.83C65.2459 129.83 65.1259 129.793 64.9926 129.72C64.8659 129.647 64.7092 129.567 64.5226 129.48C64.3426 129.393 64.1292 129.313 63.8826 129.24C63.6359 129.167 63.3426 129.13 63.0026 129.13C62.7226 129.13 62.4659 129.167 62.2326 129.24C62.0059 129.307 61.8126 129.403 61.6526 129.53C61.4926 129.65 61.3692 129.797 61.2826 129.97C61.1959 130.137 61.1526 130.317 61.1526 130.51C61.1526 130.763 61.2259 130.973 61.3726 131.14C61.5259 131.307 61.7226 131.45 61.9626 131.57C62.2092 131.69 62.4859 131.8 62.7926 131.9C63.1059 131.993 63.4226 132.093 63.7426 132.2C64.0692 132.307 64.3859 132.43 64.6926 132.57C65.0059 132.703 65.2826 132.873 65.5226 133.08C65.7692 133.28 65.9659 133.523 66.1126 133.81C66.2659 134.097 66.3426 134.447 66.3426 134.86C66.3426 135.333 66.2559 135.773 66.0826 136.18C65.9159 136.58 65.6659 136.927 65.3326 137.22C65.0059 137.513 64.5992 137.743 64.1126 137.91C63.6259 138.077 63.0692 138.16 62.4426 138.16C61.7426 138.16 61.0959 138.043 60.5026 137.81C59.9092 137.577 59.4126 137.28 59.0126 136.92L59.4726 136.17C59.5259 136.077 59.5926 136.007 59.6726 135.96C59.7526 135.907 59.8592 135.88 59.9926 135.88C60.1192 135.88 60.2492 135.927 60.3826 136.02C60.5159 136.113 60.6759 136.217 60.8626 136.33C61.0492 136.437 61.2759 136.537 61.5426 136.63C61.8092 136.717 62.1426 136.76 62.5426 136.76C62.8759 136.76 63.1659 136.72 63.4126 136.64C63.6592 136.553 63.8626 136.44 64.0226 136.3C64.1892 136.153 64.3126 135.987 64.3926 135.8C64.4726 135.613 64.5126 135.417 64.5126 135.21C64.5126 134.943 64.4359 134.723 64.2826 134.55C64.1359 134.37 63.9392 134.217 63.6926 134.09C63.4526 133.963 63.1759 133.853 62.8626 133.76C62.5492 133.667 62.2292 133.567 61.9026 133.46C61.5759 133.353 61.2559 133.23 60.9426 133.09C60.6292 132.95 60.3492 132.773 60.1026 132.56C59.8626 132.347 59.6659 132.087 59.5126 131.78C59.3659 131.473 59.2926 131.1 59.2926 130.66C59.2926 130.267 59.3726 129.89 59.5326 129.53C59.6992 129.17 59.9359 128.853 60.2426 128.58C60.5559 128.307 60.9392 128.09 61.3926 127.93C61.8526 127.763 62.3759 127.68 62.9626 127.68C63.6359 127.68 64.2426 127.787 64.7826 128C65.3292 128.213 65.7959 128.507 66.1826 128.88L65.7526 129.59ZM76.9426 131.02C76.2826 131.387 75.7892 131.827 75.4626 132.34C75.1426 132.847 74.9826 133.393 74.9826 133.98C74.9826 134.393 75.0559 134.763 75.2026 135.09C75.3559 135.41 75.5559 135.68 75.8026 135.9C76.0559 136.12 76.3426 136.287 76.6626 136.4C76.9892 136.513 77.3226 136.57 77.6626 136.57C78.3692 136.57 79.0059 136.447 79.5726 136.2C80.1392 135.947 80.6426 135.61 81.0826 135.19L76.9426 131.02ZM86.2926 138H84.3926C84.1792 138 84.0092 137.977 83.8826 137.93C83.7626 137.877 83.6259 137.77 83.4726 137.61L82.1426 136.27C81.5159 136.857 80.7959 137.32 79.9826 137.66C79.1759 137.993 78.2892 138.16 77.3226 138.16C76.7826 138.16 76.2526 138.07 75.7326 137.89C75.2192 137.703 74.7592 137.437 74.3526 137.09C73.9459 136.743 73.6159 136.323 73.3626 135.83C73.1159 135.33 72.9926 134.767 72.9926 134.14C72.9926 133.68 73.0692 133.243 73.2226 132.83C73.3759 132.41 73.5892 132.027 73.8626 131.68C74.1359 131.327 74.4592 131.01 74.8326 130.73C75.2126 130.45 75.6226 130.21 76.0626 130.01C75.6692 129.497 75.3792 129 75.1926 128.52C75.0126 128.033 74.9226 127.537 74.9226 127.03C74.9226 126.543 75.0126 126.083 75.1926 125.65C75.3726 125.217 75.6292 124.84 75.9626 124.52C76.2959 124.2 76.7026 123.947 77.1826 123.76C77.6692 123.573 78.2159 123.48 78.8226 123.48C79.3626 123.48 79.8526 123.567 80.2926 123.74C80.7392 123.907 81.1226 124.133 81.4426 124.42C81.7626 124.707 82.0126 125.037 82.1926 125.41C82.3792 125.783 82.4859 126.173 82.5126 126.58L81.2926 126.83C81.0459 126.883 80.8659 126.773 80.7526 126.5C80.6992 126.327 80.6226 126.15 80.5226 125.97C80.4292 125.79 80.3026 125.63 80.1426 125.49C79.9892 125.343 79.8026 125.223 79.5826 125.13C79.3626 125.037 79.1092 124.99 78.8226 124.99C78.5026 124.99 78.2126 125.043 77.9526 125.15C77.6992 125.257 77.4826 125.403 77.3026 125.59C77.1226 125.77 76.9826 125.983 76.8826 126.23C76.7892 126.477 76.7426 126.74 76.7426 127.02C76.7426 127.24 76.7692 127.457 76.8226 127.67C76.8759 127.877 76.9559 128.087 77.0626 128.3C77.1759 128.507 77.3192 128.72 77.4926 128.94C77.6659 129.153 77.8726 129.383 78.1126 129.63L82.1626 133.78C82.4092 133.34 82.6059 132.877 82.7526 132.39C82.8992 131.903 82.9959 131.417 83.0426 130.93C83.0559 130.797 83.0959 130.69 83.1626 130.61C83.2359 130.53 83.3392 130.49 83.4726 130.49H84.6826C84.6759 131.29 84.5526 132.07 84.3126 132.83C84.0726 133.583 83.7326 134.283 83.2926 134.93L86.2926 138ZM25.9744 155.01V160.61C25.2477 161.13 24.4744 161.52 23.6544 161.78C22.8344 162.033 21.941 162.16 20.9744 162.16C19.8144 162.16 18.7644 161.98 17.8244 161.62C16.891 161.26 16.0944 160.757 15.4344 160.11C14.7744 159.463 14.2644 158.69 13.9044 157.79C13.551 156.89 13.3744 155.9 13.3744 154.82C13.3744 153.733 13.5444 152.74 13.8844 151.84C14.231 150.933 14.7244 150.16 15.3644 149.52C16.0044 148.873 16.7777 148.373 17.6844 148.02C18.5977 147.66 19.621 147.48 20.7544 147.48C21.3277 147.48 21.8577 147.523 22.3444 147.61C22.8377 147.697 23.2944 147.82 23.7144 147.98C24.1344 148.14 24.521 148.333 24.8744 148.56C25.2344 148.78 25.5677 149.03 25.8744 149.31L25.2644 150.27C25.171 150.423 25.0477 150.52 24.8944 150.56C24.741 150.6 24.5744 150.563 24.3944 150.45C24.221 150.35 24.0277 150.233 23.8144 150.1C23.6077 149.967 23.3577 149.843 23.0644 149.73C22.7777 149.617 22.441 149.52 22.0544 149.44C21.6677 149.36 21.211 149.32 20.6844 149.32C19.8977 149.32 19.1877 149.45 18.5544 149.71C17.921 149.963 17.381 150.33 16.9344 150.81C16.4877 151.29 16.1444 151.87 15.9044 152.55C15.6644 153.223 15.5444 153.98 15.5444 154.82C15.5444 155.7 15.671 156.49 15.9244 157.19C16.1777 157.883 16.5344 158.473 16.9944 158.96C17.461 159.44 18.0244 159.807 18.6844 160.06C19.351 160.313 20.0944 160.44 20.9144 160.44C21.2344 160.44 21.531 160.423 21.8044 160.39C22.0844 160.35 22.351 160.297 22.6044 160.23C22.8577 160.163 23.101 160.08 23.3344 159.98C23.5744 159.88 23.811 159.77 24.0444 159.65V156.64H21.9244C21.791 156.64 21.681 156.6 21.5944 156.52C21.5144 156.44 21.4744 156.34 21.4744 156.22V155.01H25.9744ZM30.128 153.79C30.4546 153.123 30.848 152.6 31.308 152.22C31.768 151.84 32.3213 151.65 32.968 151.65C33.188 151.65 33.3946 151.677 33.588 151.73C33.788 151.777 33.9613 151.85 34.108 151.95L33.978 153.42C33.9313 153.6 33.8213 153.69 33.648 153.69C33.5546 153.69 33.4146 153.673 33.228 153.64C33.0413 153.6 32.8413 153.58 32.628 153.58C32.3146 153.58 32.038 153.627 31.798 153.72C31.558 153.807 31.3413 153.94 31.148 154.12C30.9613 154.293 30.7946 154.51 30.648 154.77C30.5013 155.023 30.3646 155.313 30.238 155.64V162H28.288V151.84H29.408C29.6213 151.84 29.7646 151.88 29.838 151.96C29.918 152.033 29.9746 152.167 30.008 152.36L30.128 153.79ZM41.9711 155.79C41.9711 155.403 41.9144 155.047 41.8011 154.72C41.6944 154.393 41.5344 154.11 41.3211 153.87C41.1078 153.63 40.8478 153.443 40.5411 153.31C40.2344 153.177 39.8811 153.11 39.4811 153.11C38.6611 153.11 38.0144 153.347 37.5411 153.82C37.0744 154.293 36.7778 154.95 36.6511 155.79H41.9711ZM43.5811 160.55C43.3411 160.83 43.0644 161.073 42.7511 161.28C42.4378 161.48 42.1044 161.643 41.7511 161.77C41.3978 161.897 41.0311 161.99 40.6511 162.05C40.2778 162.11 39.9078 162.14 39.5411 162.14C38.8411 162.14 38.1911 162.023 37.5911 161.79C36.9978 161.55 36.4811 161.203 36.0411 160.75C35.6078 160.29 35.2678 159.723 35.0211 159.05C34.7811 158.37 34.6611 157.59 34.6611 156.71C34.6611 156.003 34.7711 155.347 34.9911 154.74C35.2111 154.127 35.5244 153.593 35.9311 153.14C36.3444 152.687 36.8478 152.33 37.4411 152.07C38.0344 151.81 38.7011 151.68 39.4411 151.68C40.0611 151.68 40.6311 151.783 41.1511 151.99C41.6778 152.19 42.1311 152.483 42.5111 152.87C42.8911 153.257 43.1878 153.733 43.4011 154.3C43.6211 154.867 43.7311 155.513 43.7311 156.24C43.7311 156.54 43.6978 156.743 43.6311 156.85C43.5644 156.95 43.4411 157 43.2611 157H36.6011C36.6211 157.607 36.7078 158.137 36.8611 158.59C37.0144 159.037 37.2244 159.41 37.4911 159.71C37.7644 160.01 38.0878 160.233 38.4611 160.38C38.8344 160.527 39.2511 160.6 39.7111 160.6C40.1444 160.6 40.5178 160.55 40.8311 160.45C41.1511 160.35 41.4244 160.243 41.6511 160.13C41.8844 160.01 42.0778 159.9 42.2311 159.8C42.3911 159.7 42.5311 159.65 42.6511 159.65C42.8111 159.65 42.9344 159.71 43.0211 159.83L43.5811 160.55ZM52.557 155.79C52.557 155.403 52.5004 155.047 52.387 154.72C52.2804 154.393 52.1204 154.11 51.907 153.87C51.6937 153.63 51.4337 153.443 51.127 153.31C50.8204 153.177 50.467 153.11 50.067 153.11C49.247 153.11 48.6004 153.347 48.127 153.82C47.6604 154.293 47.3637 154.95 47.237 155.79H52.557ZM54.167 160.55C53.927 160.83 53.6504 161.073 53.337 161.28C53.0237 161.48 52.6904 161.643 52.337 161.77C51.9837 161.897 51.617 161.99 51.237 162.05C50.8637 162.11 50.4937 162.14 50.127 162.14C49.427 162.14 48.777 162.023 48.177 161.79C47.5837 161.55 47.067 161.203 46.627 160.75C46.1937 160.29 45.8537 159.723 45.607 159.05C45.367 158.37 45.247 157.59 45.247 156.71C45.247 156.003 45.357 155.347 45.577 154.74C45.797 154.127 46.1104 153.593 46.517 153.14C46.9304 152.687 47.4337 152.33 48.027 152.07C48.6204 151.81 49.287 151.68 50.027 151.68C50.647 151.68 51.217 151.783 51.737 151.99C52.2637 152.19 52.717 152.483 53.097 152.87C53.477 153.257 53.7737 153.733 53.987 154.3C54.207 154.867 54.317 155.513 54.317 156.24C54.317 156.54 54.2837 156.743 54.217 156.85C54.1504 156.95 54.027 157 53.847 157H47.187C47.207 157.607 47.2937 158.137 47.447 158.59C47.6004 159.037 47.8104 159.41 48.077 159.71C48.3504 160.01 48.6737 160.233 49.047 160.38C49.4204 160.527 49.837 160.6 50.297 160.6C50.7304 160.6 51.1037 160.55 51.417 160.45C51.737 160.35 52.0104 160.243 52.237 160.13C52.4704 160.01 52.6637 159.9 52.817 159.8C52.977 159.7 53.117 159.65 53.237 159.65C53.397 159.65 53.5204 159.71 53.607 159.83L54.167 160.55ZM58.243 153.25C58.463 153.017 58.693 152.803 58.933 152.61C59.173 152.417 59.4263 152.253 59.693 152.12C59.9663 151.98 60.2563 151.873 60.563 151.8C60.8763 151.72 61.2096 151.68 61.563 151.68C62.123 151.68 62.613 151.773 63.033 151.96C63.4596 152.147 63.8163 152.41 64.103 152.75C64.3896 153.083 64.6063 153.487 64.753 153.96C64.8996 154.433 64.973 154.957 64.973 155.53V162H63.013V155.53C63.013 154.803 62.8463 154.24 62.513 153.84C62.1796 153.433 61.6696 153.23 60.983 153.23C60.483 153.23 60.013 153.35 59.573 153.59C59.1396 153.823 58.7363 154.143 58.363 154.55V162H56.413V151.84H57.583C57.8563 151.84 58.0263 151.97 58.093 152.23L58.243 153.25ZM74.3344 155.79C74.3344 155.403 74.2777 155.047 74.1644 154.72C74.0577 154.393 73.8977 154.11 73.6844 153.87C73.471 153.63 73.211 153.443 72.9044 153.31C72.5977 153.177 72.2444 153.11 71.8444 153.11C71.0244 153.11 70.3777 153.347 69.9044 153.82C69.4377 154.293 69.141 154.95 69.0144 155.79H74.3344ZM75.9444 160.55C75.7044 160.83 75.4277 161.073 75.1144 161.28C74.801 161.48 74.4677 161.643 74.1144 161.77C73.761 161.897 73.3944 161.99 73.0144 162.05C72.641 162.11 72.271 162.14 71.9044 162.14C71.2044 162.14 70.5544 162.023 69.9544 161.79C69.361 161.55 68.8444 161.203 68.4044 160.75C67.971 160.29 67.631 159.723 67.3844 159.05C67.1444 158.37 67.0244 157.59 67.0244 156.71C67.0244 156.003 67.1344 155.347 67.3544 154.74C67.5744 154.127 67.8877 153.593 68.2944 153.14C68.7077 152.687 69.211 152.33 69.8044 152.07C70.3977 151.81 71.0644 151.68 71.8044 151.68C72.4244 151.68 72.9944 151.783 73.5144 151.99C74.041 152.19 74.4944 152.483 74.8744 152.87C75.2544 153.257 75.551 153.733 75.7644 154.3C75.9844 154.867 76.0944 155.513 76.0944 156.24C76.0944 156.54 76.061 156.743 75.9944 156.85C75.9277 156.95 75.8044 157 75.6244 157H68.9644C68.9844 157.607 69.071 158.137 69.2244 158.59C69.3777 159.037 69.5877 159.41 69.8544 159.71C70.1277 160.01 70.451 160.233 70.8244 160.38C71.1977 160.527 71.6144 160.6 72.0744 160.6C72.5077 160.6 72.881 160.55 73.1944 160.45C73.5144 160.35 73.7877 160.243 74.0144 160.13C74.2477 160.01 74.441 159.9 74.5944 159.8C74.7544 159.7 74.8944 159.65 75.0144 159.65C75.1744 159.65 75.2977 159.71 75.3844 159.83L75.9444 160.55ZM80.0303 153.79C80.357 153.123 80.7503 152.6 81.2103 152.22C81.6703 151.84 82.2236 151.65 82.8703 151.65C83.0903 151.65 83.297 151.677 83.4903 151.73C83.6903 151.777 83.8636 151.85 84.0103 151.95L83.8803 153.42C83.8336 153.6 83.7236 153.69 83.5503 153.69C83.457 153.69 83.317 153.673 83.1303 153.64C82.9436 153.6 82.7436 153.58 82.5303 153.58C82.217 153.58 81.9403 153.627 81.7003 153.72C81.4603 153.807 81.2436 153.94 81.0503 154.12C80.8636 154.293 80.697 154.51 80.5503 154.77C80.4036 155.023 80.267 155.313 80.1403 155.64V162H78.1903V151.84H79.3103C79.5236 151.84 79.667 151.88 79.7403 151.96C79.8203 152.033 79.877 152.167 79.9103 152.36L80.0303 153.79ZM94.3945 151.84L88.7545 164.95C88.6945 165.097 88.6145 165.21 88.5145 165.29C88.4145 165.37 88.2679 165.41 88.0745 165.41H86.6245L88.4845 161.36L84.3145 151.84H86.0145C86.1812 151.84 86.3112 151.88 86.4045 151.96C86.4979 152.04 86.5645 152.13 86.6045 152.23L89.1845 158.33C89.2379 158.483 89.2879 158.64 89.3345 158.8C89.3879 158.953 89.4312 159.107 89.4645 159.26C89.5112 159.1 89.5612 158.943 89.6145 158.79C89.6679 158.63 89.7245 158.473 89.7845 158.32L92.2745 152.23C92.3212 152.117 92.3945 152.023 92.4945 151.95C92.5945 151.877 92.7079 151.84 92.8345 151.84H94.3945Z" fill="black"/>
<g clip-path="url(#clip0_5_110)">
<path fill-rule="evenodd" clip-rule="evenodd" d="M51.7333 41.9C51.7333 37.6831 53.4085 33.6388 56.3903 30.657C59.3722 27.6752 63.4164 26 67.6333 26H80V38.3667C80 42.5836 78.3248 46.6278 75.343 49.6097C72.3612 52.5915 68.3169 54.2667 64.1 54.2667H55.2667V79H51.7333V64.8667H42.9C38.6831 64.8667 34.6388 63.1915 31.657 60.2097C28.6752 57.2278 27 53.1836 27 48.9667V36.6H39.3667C44.3628 36.6 48.8183 38.9037 51.7333 42.5042V41.9ZM55.7825 47.7159L66.3825 37.1159L68.8841 39.6175L58.2841 50.2175L55.7825 47.7159ZM48.7159 60.8175L38.1159 50.2175L40.6175 47.7159L51.2175 58.3159L48.7159 60.8175Z" fill="black"/>
</g>
<path fill-rule="evenodd" clip-rule="evenodd" d="M52.5 105C81.4949 105 105 81.4949 105 52.5C105 23.5051 81.4949 0 52.5 0C23.5051 0 0 23.5051 0 52.5C0 81.4949 23.5051 105 52.5 105ZM52.5 100.625C79.0787 100.625 100.625 79.0787 100.625 52.5C100.625 25.9213 79.0787 4.375 52.5 4.375C25.9213 4.375 4.375 25.9213 4.375 52.5C4.375 79.0787 25.9213 100.625 52.5 100.625Z" fill="black"/>
<defs>
<clipPath id="clip0_5_110">
<rect width="53" height="53" fill="white" transform="translate(27 26)"/>
</clipPath>
</defs>
</svg>
