<svg width="105" height="143" viewBox="0 0 105 143" fill="none" xmlns="http://www.w3.org/2000/svg">
<g clip-path="url(#clip0_5_93)">
<path d="M33 49.5C33.6372 49.5007 34.2501 49.7447 34.7134 50.1821C35.1767 50.6195 35.4556 51.2174 35.4929 51.8535C35.5302 52.4896 35.3233 53.1159 34.9143 53.6046C34.5053 54.0932 33.9252 54.4072 33.2925 54.4825L33 54.5H30.5C29.8628 54.4993 29.2499 54.2553 28.7866 53.8179C28.3232 53.3805 28.0444 52.7826 28.007 52.1465C27.9697 51.5104 28.1767 50.8841 28.5856 50.3954C28.9946 49.9068 29.5747 49.5928 30.2075 49.5175L30.5 49.5H33ZM53 27C53.6123 27.0001 54.2033 27.2249 54.6609 27.6318C55.1185 28.0387 55.4108 28.5994 55.4825 29.2075L55.5 29.5V32C55.4993 32.6372 55.2553 33.2501 54.8179 33.7134C54.3804 34.1768 53.7826 34.4556 53.1465 34.4929C52.5104 34.5303 51.884 34.3233 51.3954 33.9143C50.9068 33.5054 50.5927 32.9252 50.5175 32.2925L50.5 32V29.5C50.5 28.837 50.7634 28.2011 51.2322 27.7322C51.7011 27.2634 52.3369 27 53 27ZM75.5 49.5C76.1372 49.5007 76.7501 49.7447 77.2134 50.1821C77.6767 50.6195 77.9556 51.2174 77.9929 51.8535C78.0302 52.4896 77.8233 53.1159 77.4143 53.6046C77.0053 54.0932 76.4252 54.4072 75.7925 54.4825L75.5 54.5H73C72.3628 54.4993 71.7499 54.2553 71.2866 53.8179C70.8232 53.3805 70.5444 52.7826 70.507 52.1465C70.4697 51.5104 70.6767 50.8841 71.0856 50.3954C71.4946 49.9068 72.0747 49.5928 72.7075 49.5175L73 49.5H75.5ZM35.2325 34.2325C35.663 33.8021 36.2357 33.5435 36.8433 33.5053C37.4508 33.4671 38.0515 33.6519 38.5325 34.025L38.7675 34.2325L40.5175 35.9825C40.9658 36.4324 41.2262 37.0361 41.2455 37.671C41.2649 38.3058 41.0419 38.9243 40.6219 39.4007C40.2018 39.8771 39.6161 40.1758 38.9838 40.236C38.3515 40.2962 37.72 40.1135 37.2175 39.725L36.9825 39.5175L35.2325 37.7675C34.7638 37.2987 34.5005 36.6629 34.5005 36C34.5005 35.3371 34.7638 34.7013 35.2325 34.2325ZM67.2325 34.2325C67.6824 33.7841 68.2861 33.5238 68.9209 33.5044C69.5558 33.485 70.1743 33.708 70.6507 34.1281C71.1271 34.5482 71.4257 35.1339 71.486 35.7662C71.5462 36.3985 71.3635 37.03 70.975 37.5325L70.7675 37.7675L69.0175 39.5175C68.5676 39.9659 67.9639 40.2262 67.329 40.2456C66.6941 40.265 66.0757 40.042 65.5993 39.6219C65.1229 39.2018 64.8242 38.6161 64.764 37.9838C64.7037 37.3515 64.8864 36.72 65.275 36.2175L65.4825 35.9825L67.2325 34.2325ZM58 67C58.663 67 59.2989 67.2634 59.7677 67.7322C60.2366 68.2011 60.5 68.837 60.5 69.5C60.5 71.4891 59.7098 73.3968 58.3033 74.8033C56.8968 76.2098 54.9891 77 53 77C51.0109 77 49.1032 76.2098 47.6967 74.8033C46.2902 73.3968 45.5 71.4891 45.5 69.5C45.5001 68.8877 45.7249 68.2967 46.1318 67.8391C46.5387 67.3815 47.0994 67.0891 47.7075 67.0175L48 67H58ZM53 37C56.1482 37 59.2166 37.9906 61.7706 39.8314C64.3246 41.6722 66.2347 44.2699 67.2302 47.2566C68.2258 50.2433 68.2564 53.4675 67.3177 56.4725C66.379 59.4775 64.5186 62.1111 62 64C61.6554 64.2588 61.2498 64.4242 60.8225 64.48L60.5 64.5H45.5C44.9591 64.5 44.4327 64.3246 44 64C41.4814 62.1111 39.621 59.4775 38.6823 56.4725C37.7436 53.4675 37.7742 50.2433 38.7697 47.2566C39.7653 44.2699 41.6753 41.6722 44.2293 39.8314C46.7833 37.9906 49.8517 37 53 37Z" fill="black"/>
</g>
<path d="M27.99 130.21V132H19.77V117.64H21.9V130.21H27.99ZM31.703 121.84V132H29.753V121.84H31.703ZM32.073 118.7C32.073 118.88 32.0363 119.053 31.963 119.22C31.8896 119.38 31.7896 119.523 31.663 119.65C31.543 119.77 31.3996 119.867 31.233 119.94C31.0663 120.007 30.893 120.04 30.713 120.04C30.533 120.04 30.363 120.007 30.203 119.94C30.043 119.867 29.8996 119.77 29.773 119.65C29.653 119.523 29.5563 119.38 29.483 119.22C29.4163 119.053 29.383 118.88 29.383 118.7C29.383 118.513 29.4163 118.34 29.483 118.18C29.5563 118.013 29.653 117.87 29.773 117.75C29.8996 117.623 30.043 117.527 30.203 117.46C30.363 117.387 30.533 117.35 30.713 117.35C30.893 117.35 31.0663 117.387 31.233 117.46C31.3996 117.527 31.543 117.623 31.663 117.75C31.7896 117.87 31.8896 118.013 31.963 118.18C32.0363 118.34 32.073 118.513 32.073 118.7ZM38.0963 126.93C38.4429 126.93 38.7463 126.883 39.0063 126.79C39.2729 126.697 39.4929 126.567 39.6663 126.4C39.8463 126.227 39.9796 126.02 40.0663 125.78C40.1596 125.54 40.2063 125.277 40.2063 124.99C40.2063 124.403 40.0263 123.937 39.6663 123.59C39.3129 123.237 38.7896 123.06 38.0963 123.06C37.4096 123.06 36.8863 123.237 36.5263 123.59C36.1729 123.937 35.9963 124.403 35.9963 124.99C35.9963 125.277 36.0396 125.54 36.1263 125.78C36.2196 126.013 36.3529 126.217 36.5263 126.39C36.7063 126.557 36.9263 126.69 37.1863 126.79C37.4529 126.883 37.7563 126.93 38.0963 126.93ZM41.2063 132.53C41.2063 132.29 41.1396 132.1 41.0063 131.96C40.8729 131.813 40.6896 131.7 40.4563 131.62C40.2296 131.533 39.9629 131.473 39.6563 131.44C39.3496 131.4 39.0263 131.37 38.6863 131.35C38.3529 131.33 38.0096 131.313 37.6563 131.3C37.3029 131.28 36.9629 131.247 36.6363 131.2C36.2896 131.373 36.0029 131.583 35.7763 131.83C35.5563 132.077 35.4463 132.367 35.4463 132.7C35.4463 132.913 35.4996 133.113 35.6063 133.3C35.7196 133.487 35.8896 133.647 36.1163 133.78C36.3496 133.92 36.6396 134.027 36.9863 134.1C37.3396 134.18 37.7596 134.22 38.2463 134.22C38.7263 134.22 39.1496 134.177 39.5163 134.09C39.8829 134.01 40.1896 133.893 40.4363 133.74C40.6896 133.593 40.8796 133.417 41.0063 133.21C41.1396 133.003 41.2063 132.777 41.2063 132.53ZM43.1863 122.22V122.95C43.1863 123.19 43.0363 123.34 42.7363 123.4L41.6463 123.56C41.7396 123.767 41.8129 123.987 41.8663 124.22C41.9196 124.447 41.9463 124.687 41.9463 124.94C41.9463 125.44 41.8496 125.893 41.6563 126.3C41.4629 126.7 41.1963 127.043 40.8563 127.33C40.5163 127.617 40.1096 127.837 39.6363 127.99C39.1696 128.143 38.6563 128.22 38.0963 128.22C37.6363 128.22 37.2063 128.17 36.8063 128.07C36.6063 128.19 36.4529 128.323 36.3463 128.47C36.2463 128.61 36.1963 128.75 36.1963 128.89C36.1963 129.123 36.2929 129.297 36.4863 129.41C36.6863 129.523 36.9429 129.607 37.2563 129.66C37.5763 129.707 37.9396 129.737 38.3463 129.75C38.7596 129.763 39.1763 129.787 39.5963 129.82C40.0229 129.847 40.4396 129.9 40.8463 129.98C41.2596 130.053 41.6229 130.177 41.9363 130.35C42.2563 130.517 42.5129 130.75 42.7063 131.05C42.9063 131.343 43.0063 131.727 43.0063 132.2C43.0063 132.64 42.8963 133.067 42.6763 133.48C42.4629 133.893 42.1496 134.26 41.7363 134.58C41.3229 134.9 40.8196 135.157 40.2263 135.35C39.6329 135.543 38.9596 135.64 38.2062 135.64C37.4529 135.64 36.7963 135.567 36.2363 135.42C35.6829 135.273 35.2196 135.077 34.8463 134.83C34.4796 134.583 34.2029 134.297 34.0163 133.97C33.8363 133.643 33.7463 133.303 33.7463 132.95C33.7463 132.457 33.8996 132.04 34.2063 131.7C34.5129 131.353 34.9363 131.083 35.4763 130.89C35.1829 130.757 34.9496 130.577 34.7763 130.35C34.6029 130.117 34.5163 129.81 34.5163 129.43C34.5163 129.283 34.5429 129.133 34.5963 128.98C34.6496 128.82 34.7296 128.663 34.8363 128.51C34.9496 128.35 35.0863 128.2 35.2463 128.06C35.4129 127.92 35.6029 127.793 35.8163 127.68C35.3163 127.4 34.9229 127.03 34.6363 126.57C34.3496 126.103 34.2063 125.56 34.2063 124.94C34.2063 124.44 34.3029 123.99 34.4963 123.59C34.6896 123.19 34.9563 122.847 35.2963 122.56C35.6429 122.273 36.0529 122.053 36.5263 121.9C37.0063 121.747 37.5296 121.67 38.0963 121.67C38.9763 121.67 39.7329 121.853 40.3663 122.22H43.1863ZM46.9255 123.13C47.3521 122.697 47.8221 122.347 48.3355 122.08C48.8555 121.813 49.4521 121.68 50.1255 121.68C50.6855 121.68 51.1755 121.773 51.5955 121.96C52.0221 122.147 52.3788 122.41 52.6655 122.75C52.9521 123.083 53.1688 123.487 53.3155 123.96C53.4621 124.433 53.5355 124.957 53.5355 125.53V132H51.5755V125.53C51.5755 124.803 51.4088 124.24 51.0755 123.84C50.7421 123.433 50.2321 123.23 49.5455 123.23C49.0455 123.23 48.5755 123.35 48.1355 123.59C47.7021 123.823 47.2988 124.143 46.9255 124.55V132H44.9755V117.24H46.9255V123.13ZM65.6602 132H63.7002V123.42H58.6002V129.37C58.6002 129.77 58.6968 130.07 58.8902 130.27C59.0902 130.463 59.3435 130.56 59.6502 130.56C59.8302 130.56 59.9835 130.537 60.1102 130.49C60.2435 130.443 60.3568 130.393 60.4502 130.34C60.5435 130.28 60.6235 130.227 60.6902 130.18C60.7568 130.133 60.8168 130.11 60.8702 130.11C60.9368 130.11 60.9868 130.127 61.0202 130.16C61.0602 130.187 61.1002 130.233 61.1402 130.3L61.7202 131.24C61.4002 131.533 61.0202 131.76 60.5802 131.92C60.1402 132.08 59.6835 132.16 59.2102 132.16C58.3902 132.16 57.7568 131.93 57.3102 131.47C56.8702 131.01 56.6502 130.353 56.6502 129.5V123.42H55.4702C55.3568 123.42 55.2602 123.387 55.1802 123.32C55.1068 123.247 55.0702 123.14 55.0702 123V122.21L56.7302 121.98L57.1602 118.95C57.1868 118.837 57.2368 118.75 57.3102 118.69C57.3902 118.623 57.4902 118.59 57.6102 118.59H58.6002V122H65.6602V132ZM66.1002 118.64C66.1002 118.82 66.0635 118.993 65.9902 119.16C65.9168 119.32 65.8168 119.463 65.6902 119.59C65.5702 119.71 65.4268 119.807 65.2602 119.88C65.0935 119.947 64.9202 119.98 64.7402 119.98C64.5602 119.98 64.3902 119.947 64.2302 119.88C64.0702 119.807 63.9268 119.71 63.8002 119.59C63.6802 119.463 63.5835 119.32 63.5102 119.16C63.4435 118.993 63.4102 118.82 63.4102 118.64C63.4102 118.453 63.4435 118.277 63.5102 118.11C63.5835 117.943 63.6802 117.8 63.8002 117.68C63.9268 117.553 64.0702 117.457 64.2302 117.39C64.3902 117.317 64.5602 117.28 64.7402 117.28C64.9202 117.28 65.0935 117.317 65.2602 117.39C65.4268 117.457 65.5702 117.553 65.6902 117.68C65.8168 117.8 65.9168 117.943 65.9902 118.11C66.0635 118.277 66.1002 118.453 66.1002 118.64ZM70.3211 123.25C70.5411 123.017 70.7711 122.803 71.0111 122.61C71.2511 122.417 71.5044 122.253 71.7711 122.12C72.0444 121.98 72.3344 121.873 72.6411 121.8C72.9544 121.72 73.2878 121.68 73.6411 121.68C74.2011 121.68 74.6911 121.773 75.1111 121.96C75.5378 122.147 75.8944 122.41 76.1811 122.75C76.4678 123.083 76.6844 123.487 76.8311 123.96C76.9778 124.433 77.0511 124.957 77.0511 125.53V132H75.0911V125.53C75.0911 124.803 74.9244 124.24 74.5911 123.84C74.2578 123.433 73.7478 123.23 73.0611 123.23C72.5611 123.23 72.0911 123.35 71.6511 123.59C71.2178 123.823 70.8144 124.143 70.4411 124.55V132H68.4911V121.84H69.6611C69.9344 121.84 70.1044 121.97 70.1711 122.23L70.3211 123.25ZM83.2525 126.93C83.5992 126.93 83.9025 126.883 84.1625 126.79C84.4292 126.697 84.6492 126.567 84.8225 126.4C85.0025 126.227 85.1358 126.02 85.2225 125.78C85.3158 125.54 85.3625 125.277 85.3625 124.99C85.3625 124.403 85.1825 123.937 84.8225 123.59C84.4692 123.237 83.9458 123.06 83.2525 123.06C82.5658 123.06 82.0425 123.237 81.6825 123.59C81.3292 123.937 81.1525 124.403 81.1525 124.99C81.1525 125.277 81.1958 125.54 81.2825 125.78C81.3758 126.013 81.5092 126.217 81.6825 126.39C81.8625 126.557 82.0825 126.69 82.3425 126.79C82.6092 126.883 82.9125 126.93 83.2525 126.93ZM86.3625 132.53C86.3625 132.29 86.2958 132.1 86.1625 131.96C86.0292 131.813 85.8458 131.7 85.6125 131.62C85.3858 131.533 85.1192 131.473 84.8125 131.44C84.5058 131.4 84.1825 131.37 83.8425 131.35C83.5092 131.33 83.1658 131.313 82.8125 131.3C82.4592 131.28 82.1192 131.247 81.7925 131.2C81.4458 131.373 81.1592 131.583 80.9325 131.83C80.7125 132.077 80.6025 132.367 80.6025 132.7C80.6025 132.913 80.6558 133.113 80.7625 133.3C80.8758 133.487 81.0458 133.647 81.2725 133.78C81.5058 133.92 81.7958 134.027 82.1425 134.1C82.4958 134.18 82.9158 134.22 83.4025 134.22C83.8825 134.22 84.3058 134.177 84.6725 134.09C85.0392 134.01 85.3458 133.893 85.5925 133.74C85.8458 133.593 86.0358 133.417 86.1625 133.21C86.2958 133.003 86.3625 132.777 86.3625 132.53ZM88.3425 122.22V122.95C88.3425 123.19 88.1925 123.34 87.8925 123.4L86.8025 123.56C86.8958 123.767 86.9692 123.987 87.0225 124.22C87.0758 124.447 87.1025 124.687 87.1025 124.94C87.1025 125.44 87.0058 125.893 86.8125 126.3C86.6192 126.7 86.3525 127.043 86.0125 127.33C85.6725 127.617 85.2658 127.837 84.7925 127.99C84.3258 128.143 83.8125 128.22 83.2525 128.22C82.7925 128.22 82.3625 128.17 81.9625 128.07C81.7625 128.19 81.6092 128.323 81.5025 128.47C81.4025 128.61 81.3525 128.75 81.3525 128.89C81.3525 129.123 81.4492 129.297 81.6425 129.41C81.8425 129.523 82.0992 129.607 82.4125 129.66C82.7325 129.707 83.0958 129.737 83.5025 129.75C83.9158 129.763 84.3325 129.787 84.7525 129.82C85.1792 129.847 85.5958 129.9 86.0025 129.98C86.4158 130.053 86.7792 130.177 87.0925 130.35C87.4125 130.517 87.6692 130.75 87.8625 131.05C88.0625 131.343 88.1625 131.727 88.1625 132.2C88.1625 132.64 88.0525 133.067 87.8325 133.48C87.6192 133.893 87.3058 134.26 86.8925 134.58C86.4792 134.9 85.9758 135.157 85.3825 135.35C84.7892 135.543 84.1158 135.64 83.3625 135.64C82.6092 135.64 81.9525 135.567 81.3925 135.42C80.8392 135.273 80.3758 135.077 80.0025 134.83C79.6358 134.583 79.3592 134.297 79.1725 133.97C78.9925 133.643 78.9025 133.303 78.9025 132.95C78.9025 132.457 79.0558 132.04 79.3625 131.7C79.6692 131.353 80.0925 131.083 80.6325 130.89C80.3392 130.757 80.1058 130.577 79.9325 130.35C79.7592 130.117 79.6725 129.81 79.6725 129.43C79.6725 129.283 79.6992 129.133 79.7525 128.98C79.8058 128.82 79.8858 128.663 79.9925 128.51C80.1058 128.35 80.2425 128.2 80.4025 128.06C80.5692 127.92 80.7592 127.793 80.9725 127.68C80.4725 127.4 80.0792 127.03 79.7925 126.57C79.5058 126.103 79.3625 125.56 79.3625 124.94C79.3625 124.44 79.4592 123.99 79.6525 123.59C79.8458 123.19 80.1125 122.847 80.4525 122.56C80.7992 122.273 81.2092 122.053 81.6825 121.9C82.1625 121.747 82.6858 121.67 83.2525 121.67C84.1325 121.67 84.8892 121.853 85.5225 122.22H88.3425Z" fill="black"/>
<path fill-rule="evenodd" clip-rule="evenodd" d="M52.5 105C81.4949 105 105 81.4949 105 52.5C105 23.5051 81.4949 0 52.5 0C23.5051 0 0 23.5051 0 52.5C0 81.4949 23.5051 105 52.5 105ZM52.5 100.625C79.0787 100.625 100.625 79.0787 100.625 52.5C100.625 25.9213 79.0787 4.375 52.5 4.375C25.9213 4.375 4.375 25.9213 4.375 52.5C4.375 79.0787 25.9213 100.625 52.5 100.625Z" fill="black"/>
<defs>
<clipPath id="clip0_5_93">
<rect width="60" height="60" fill="white" transform="translate(23 22)"/>
</clipPath>
</defs>
</svg>
