<svg width="105" height="137" viewBox="0 0 105 137" fill="none" xmlns="http://www.w3.org/2000/svg">
<path fill-rule="evenodd" clip-rule="evenodd" d="M52.5 105C81.4949 105 105 81.4949 105 52.5C105 23.5051 81.4949 0 52.5 0C23.5051 0 0 23.5051 0 52.5C0 81.4949 23.5051 105 52.5 105ZM52.5 100.625C79.0787 100.625 100.625 79.0787 100.625 52.5C100.625 25.9213 79.0787 4.375 52.5 4.375C25.9213 4.375 4.375 25.9213 4.375 52.5C4.375 79.0787 25.9213 100.625 52.5 100.625Z" fill="#5039A9"/>
<path d="M24.2 119.98C24.1333 120.093 24.0633 120.177 23.99 120.23C23.9167 120.283 23.8233 120.31 23.71 120.31C23.59 120.31 23.4533 120.257 23.3 120.15C23.1467 120.037 22.9533 119.913 22.72 119.78C22.4933 119.64 22.22 119.517 21.9 119.41C21.58 119.297 21.1967 119.24 20.75 119.24C20.33 119.24 19.96 119.297 19.64 119.41C19.3267 119.517 19.0633 119.667 18.85 119.86C18.6367 120.047 18.4733 120.27 18.36 120.53C18.2533 120.783 18.2 121.06 18.2 121.36C18.2 121.747 18.2967 122.067 18.49 122.32C18.69 122.573 18.95 122.79 19.27 122.97C19.59 123.15 19.9533 123.307 20.36 123.44C20.7667 123.573 21.1833 123.713 21.61 123.86C22.0367 124 22.4533 124.163 22.86 124.35C23.2667 124.537 23.63 124.773 23.95 125.06C24.27 125.34 24.5267 125.687 24.72 126.1C24.92 126.507 25.02 127.007 25.02 127.6C25.02 128.233 24.91 128.827 24.69 129.38C24.4767 129.933 24.1633 130.417 23.75 130.83C23.3367 131.243 22.8267 131.57 22.22 131.81C21.62 132.043 20.9367 132.16 20.17 132.16C19.71 132.16 19.2633 132.113 18.83 132.02C18.3967 131.933 17.9867 131.81 17.6 131.65C17.2133 131.483 16.85 131.287 16.51 131.06C16.1767 130.827 15.8767 130.567 15.61 130.28L16.22 129.26C16.28 129.18 16.35 129.113 16.43 129.06C16.5167 129.007 16.6133 128.98 16.72 128.98C16.86 128.98 17.02 129.053 17.2 129.2C17.3867 129.347 17.6133 129.51 17.88 129.69C18.1533 129.863 18.4767 130.023 18.85 130.17C19.23 130.317 19.69 130.39 20.23 130.39C20.67 130.39 21.0633 130.333 21.41 130.22C21.7567 130.1 22.0467 129.933 22.28 129.72C22.52 129.5 22.7033 129.237 22.83 128.93C22.9567 128.623 23.02 128.283 23.02 127.91C23.02 127.49 22.9233 127.147 22.73 126.88C22.5367 126.613 22.28 126.39 21.96 126.21C21.64 126.03 21.2767 125.877 20.87 125.75C20.4633 125.623 20.0467 125.493 19.62 125.36C19.1933 125.22 18.7767 125.06 18.37 124.88C17.9633 124.7 17.6 124.467 17.28 124.18C16.96 123.887 16.7033 123.523 16.51 123.09C16.3167 122.65 16.22 122.11 16.22 121.47C16.22 120.957 16.32 120.46 16.52 119.98C16.72 119.5 17.01 119.077 17.39 118.71C17.7767 118.337 18.25 118.04 18.81 117.82C19.37 117.593 20.01 117.48 20.73 117.48C21.5367 117.48 22.2767 117.61 22.95 117.87C23.63 118.123 24.22 118.49 24.72 118.97L24.2 119.98ZM33.9203 125.79C33.9203 125.403 33.8636 125.047 33.7503 124.72C33.6436 124.393 33.4836 124.11 33.2703 123.87C33.057 123.63 32.797 123.443 32.4903 123.31C32.1836 123.177 31.8303 123.11 31.4303 123.11C30.6103 123.11 29.9636 123.347 29.4903 123.82C29.0236 124.293 28.727 124.95 28.6003 125.79H33.9203ZM35.5303 130.55C35.2903 130.83 35.0136 131.073 34.7003 131.28C34.387 131.48 34.0536 131.643 33.7003 131.77C33.347 131.897 32.9803 131.99 32.6003 132.05C32.227 132.11 31.857 132.14 31.4903 132.14C30.7903 132.14 30.1403 132.023 29.5403 131.79C28.947 131.55 28.4303 131.203 27.9903 130.75C27.557 130.29 27.217 129.723 26.9703 129.05C26.7303 128.37 26.6103 127.59 26.6103 126.71C26.6103 126.003 26.7203 125.347 26.9403 124.74C27.1603 124.127 27.4736 123.593 27.8803 123.14C28.2936 122.687 28.797 122.33 29.3903 122.07C29.9836 121.81 30.6503 121.68 31.3903 121.68C32.0103 121.68 32.5803 121.783 33.1003 121.99C33.627 122.19 34.0803 122.483 34.4603 122.87C34.8403 123.257 35.137 123.733 35.3503 124.3C35.5703 124.867 35.6803 125.513 35.6803 126.24C35.6803 126.54 35.647 126.743 35.5803 126.85C35.5136 126.95 35.3903 127 35.2103 127H28.5503C28.5703 127.607 28.657 128.137 28.8103 128.59C28.9636 129.037 29.1736 129.41 29.4403 129.71C29.7136 130.01 30.037 130.233 30.4103 130.38C30.7836 130.527 31.2003 130.6 31.6603 130.6C32.0936 130.6 32.467 130.55 32.7803 130.45C33.1003 130.35 33.3736 130.243 33.6003 130.13C33.8336 130.01 34.027 129.9 34.1803 129.8C34.3403 129.7 34.4803 129.65 34.6003 129.65C34.7603 129.65 34.8836 129.71 34.9703 129.83L35.5303 130.55ZM44.8963 123.74C44.8363 123.813 44.7763 123.873 44.7163 123.92C44.6629 123.96 44.5829 123.98 44.4763 123.98C44.3696 123.98 44.2563 123.94 44.1363 123.86C44.0229 123.773 43.8763 123.683 43.6963 123.59C43.5229 123.49 43.3096 123.4 43.0563 123.32C42.8096 123.233 42.5029 123.19 42.1363 123.19C41.6563 123.19 41.2329 123.277 40.8663 123.45C40.4996 123.623 40.1929 123.87 39.9463 124.19C39.7063 124.51 39.5229 124.9 39.3963 125.36C39.2696 125.82 39.2063 126.337 39.2063 126.91C39.2063 127.503 39.2729 128.033 39.4063 128.5C39.5396 128.96 39.7296 129.35 39.9763 129.67C40.2229 129.983 40.5229 130.223 40.8763 130.39C41.2296 130.55 41.6229 130.63 42.0562 130.63C42.4763 130.63 42.8229 130.58 43.0963 130.48C43.3696 130.373 43.5963 130.26 43.7763 130.14C43.9563 130.02 44.1063 129.91 44.2263 129.81C44.3463 129.703 44.4696 129.65 44.5963 129.65C44.7563 129.65 44.8796 129.71 44.9663 129.83L45.5263 130.55C45.2929 130.837 45.0296 131.08 44.7363 131.28C44.4496 131.48 44.1429 131.643 43.8163 131.77C43.4896 131.897 43.1463 131.99 42.7863 132.05C42.4329 132.11 42.0729 132.14 41.7063 132.14C41.0729 132.14 40.4796 132.023 39.9263 131.79C39.3796 131.557 38.9029 131.217 38.4963 130.77C38.0963 130.323 37.7796 129.777 37.5463 129.13C37.3129 128.477 37.1963 127.737 37.1963 126.91C37.1963 126.157 37.2996 125.46 37.5063 124.82C37.7196 124.18 38.0296 123.63 38.4363 123.17C38.8496 122.703 39.3563 122.34 39.9563 122.08C40.5563 121.813 41.2429 121.68 42.0163 121.68C42.7429 121.68 43.3829 121.797 43.9363 122.03C44.4896 122.263 44.9829 122.593 45.4163 123.02L44.8963 123.74ZM55.7966 121.84V132H54.6266C54.3599 132 54.1866 131.87 54.1066 131.61L53.9666 130.59C53.7466 130.823 53.5166 131.037 53.2766 131.23C53.0366 131.423 52.7799 131.59 52.5066 131.73C52.2332 131.863 51.9432 131.967 51.6366 132.04C51.3299 132.12 50.9999 132.16 50.6466 132.16C50.0866 132.16 49.5932 132.067 49.1666 131.88C48.7466 131.693 48.3932 131.433 48.1066 131.1C47.8199 130.76 47.6032 130.353 47.4566 129.88C47.3099 129.407 47.2366 128.883 47.2366 128.31V121.84H49.1966V128.31C49.1966 129.037 49.3632 129.603 49.6966 130.01C50.0299 130.41 50.5399 130.61 51.2266 130.61C51.7266 130.61 52.1932 130.493 52.6266 130.26C53.0599 130.02 53.4666 129.693 53.8466 129.28V121.84H55.7966ZM60.3584 123.79C60.6851 123.123 61.0784 122.6 61.5384 122.22C61.9984 121.84 62.5518 121.65 63.1984 121.65C63.4184 121.65 63.6251 121.677 63.8184 121.73C64.0184 121.777 64.1918 121.85 64.3384 121.95L64.2084 123.42C64.1618 123.6 64.0518 123.69 63.8784 123.69C63.7851 123.69 63.6451 123.673 63.4584 123.64C63.2718 123.6 63.0718 123.58 62.8584 123.58C62.5451 123.58 62.2684 123.627 62.0284 123.72C61.7884 123.807 61.5718 123.94 61.3784 124.12C61.1918 124.293 61.0251 124.51 60.8784 124.77C60.7318 125.023 60.5951 125.313 60.4684 125.64V132H58.5184V121.84H59.6384C59.8518 121.84 59.9951 121.88 60.0684 121.96C60.1484 122.033 60.2051 122.167 60.2384 122.36L60.3584 123.79ZM67.8827 121.84V132H65.9327V121.84H67.8827ZM68.2527 118.7C68.2527 118.88 68.216 119.053 68.1427 119.22C68.0693 119.38 67.9693 119.523 67.8427 119.65C67.7227 119.77 67.5793 119.867 67.4127 119.94C67.246 120.007 67.0727 120.04 66.8927 120.04C66.7127 120.04 66.5427 120.007 66.3827 119.94C66.2227 119.867 66.0793 119.77 65.9527 119.65C65.8327 119.523 65.736 119.38 65.6627 119.22C65.596 119.053 65.5627 118.88 65.5627 118.7C65.5627 118.513 65.596 118.34 65.6627 118.18C65.736 118.013 65.8327 117.87 65.9527 117.75C66.0793 117.623 66.2227 117.527 66.3827 117.46C66.5427 117.387 66.7127 117.35 66.8927 117.35C67.0727 117.35 67.246 117.387 67.4127 117.46C67.5793 117.527 67.7227 117.623 67.8427 117.75C67.9693 117.87 68.0693 118.013 68.1427 118.18C68.216 118.34 68.2527 118.513 68.2527 118.7ZM73.8859 132.16C73.0659 132.16 72.4326 131.93 71.9859 131.47C71.5459 131.01 71.3259 130.353 71.3259 129.5V123.42H70.1459C70.0326 123.42 69.9359 123.387 69.8559 123.32C69.7826 123.247 69.7459 123.14 69.7459 123V122.21L71.3959 121.98L71.8359 118.95C71.8626 118.837 71.9126 118.75 71.9859 118.69C72.0659 118.623 72.1659 118.59 72.2859 118.59H73.2759V122H76.1559V123.42H73.2759V129.37C73.2759 129.77 73.3726 130.07 73.5659 130.27C73.7659 130.463 74.0193 130.56 74.3259 130.56C74.5059 130.56 74.6593 130.537 74.7859 130.49C74.9193 130.443 75.0326 130.393 75.1259 130.34C75.2193 130.28 75.2993 130.227 75.3659 130.18C75.4326 130.133 75.4926 130.11 75.5459 130.11C75.6126 130.11 75.6626 130.127 75.6959 130.16C75.7359 130.187 75.7759 130.233 75.8159 130.3L76.3959 131.24C76.0759 131.533 75.6959 131.76 75.2559 131.92C74.8159 132.08 74.3593 132.16 73.8859 132.16ZM86.832 121.84L81.192 134.95C81.132 135.097 81.052 135.21 80.952 135.29C80.852 135.37 80.7054 135.41 80.512 135.41H79.062L80.922 131.36L76.752 121.84H78.452C78.6187 121.84 78.7487 121.88 78.842 121.96C78.9354 122.04 79.002 122.13 79.042 122.23L81.622 128.33C81.6754 128.483 81.7254 128.64 81.772 128.8C81.8254 128.953 81.8687 129.107 81.902 129.26C81.9487 129.1 81.9987 128.943 82.052 128.79C82.1054 128.63 82.162 128.473 82.222 128.32L84.712 122.23C84.7587 122.117 84.832 122.023 84.932 121.95C85.032 121.877 85.1454 121.84 85.272 121.84H86.832Z" fill="#5039A9"/>
<path d="M30 41.3553C30 39.4045 30.7704 37.5337 32.1418 36.1543C33.5131 34.7749 35.3731 34 37.3125 34H56.4375C58.3769 34 60.2369 34.7749 61.6082 36.1543C62.9796 37.5337 63.75 39.4045 63.75 41.3553V56.0658C63.75 58.0165 62.9796 59.8874 61.6082 61.2667C60.2369 62.6461 58.3769 63.4211 56.4375 63.4211H37.3125C35.3731 63.4211 33.5131 62.6461 32.1418 61.2667C30.7704 59.8874 30 58.0165 30 56.0658V41.3553ZM74.145 35.3511C74.4048 35.4993 74.6208 35.7142 74.771 35.9738C74.9212 36.2335 75.0002 36.5285 75 36.8289V60.5921C75 60.8925 74.9207 61.1875 74.7703 61.447C74.6198 61.7065 74.4036 61.9212 74.1437 62.0692C73.8838 62.2171 73.5896 62.2931 73.2909 62.2892C72.9923 62.2854 72.7001 62.2019 72.444 62.0473L66 58.1592V39.2618L72.444 35.3737C72.6999 35.2192 72.9919 35.1357 73.2903 35.1317C73.5888 35.1277 73.8829 35.2034 74.1427 35.3511H74.145ZM43.8038 65.6842C43.4442 66.833 42.7298 67.8364 41.7643 68.5487C40.7988 69.261 39.6326 69.6449 38.4353 69.6447H33.9353C33.4877 69.6447 33.0585 69.8236 32.742 70.1419C32.4255 70.4602 32.2478 70.8919 32.2478 71.3421V74.9632C32.2478 75.5034 32.4611 76.0214 32.8409 76.4034C33.2206 76.7854 33.7357 77 34.2727 77H38.6467C41.8693 76.9999 44.9911 75.87 47.4748 73.8047C49.9585 71.7393 51.6488 68.8678 52.2547 65.6842H43.8038Z" fill="#5039A9"/>
</svg>
