<svg width="223" height="131" viewBox="0 0 223 131" fill="none" xmlns="http://www.w3.org/2000/svg">
<path d="M51.5432 101.948C52.2312 101.948 52.8472 101.832 53.3912 101.6C53.9352 101.368 54.3952 101.044 54.7712 100.628C55.1472 100.204 55.4352 99.704 55.6352 99.128C55.8352 98.544 55.9352 97.9 55.9352 97.196V86.768H58.4792V97.196C58.4792 98.204 58.3192 99.136 57.9992 99.992C57.6792 100.848 57.2192 101.588 56.6192 102.212C56.0192 102.836 55.2912 103.324 54.4352 103.676C53.5792 104.028 52.6152 104.204 51.5432 104.204C50.4712 104.204 49.5072 104.028 48.6512 103.676C47.7952 103.324 47.0672 102.836 46.4672 102.212C45.8672 101.588 45.4072 100.848 45.0872 99.992C44.7672 99.136 44.6072 98.204 44.6072 97.196V86.768H47.1632V97.184C47.1632 97.888 47.2592 98.532 47.4512 99.116C47.6512 99.7 47.9392 100.204 48.3152 100.628C48.6912 101.044 49.1512 101.368 49.6952 101.6C50.2392 101.832 50.8552 101.948 51.5432 101.948ZM64.0035 101C64.3875 101.504 64.7995 101.856 65.2395 102.056C65.6875 102.256 66.1875 102.356 66.7395 102.356C67.8115 102.356 68.6395 101.972 69.2235 101.204C69.8155 100.428 70.1115 99.3 70.1115 97.82C70.1115 97.044 70.0435 96.384 69.9075 95.84C69.7795 95.288 69.5875 94.84 69.3315 94.496C69.0835 94.144 68.7755 93.888 68.4075 93.728C68.0395 93.56 67.6235 93.476 67.1595 93.476C66.4795 93.476 65.8875 93.628 65.3835 93.932C64.8875 94.236 64.4275 94.668 64.0035 95.228V101ZM63.8835 93.632C64.1395 93.328 64.4115 93.052 64.6995 92.804C64.9955 92.548 65.3115 92.332 65.6475 92.156C65.9835 91.972 66.3395 91.832 66.7155 91.736C67.0995 91.632 67.5075 91.58 67.9395 91.58C68.6355 91.58 69.2635 91.716 69.8235 91.988C70.3915 92.26 70.8755 92.66 71.2755 93.188C71.6755 93.716 71.9835 94.368 72.1995 95.144C72.4235 95.92 72.5355 96.812 72.5355 97.82C72.5355 98.724 72.4115 99.564 72.1635 100.34C71.9235 101.108 71.5755 101.776 71.1195 102.344C70.6715 102.912 70.1195 103.36 69.4635 103.688C68.8155 104.008 68.0835 104.168 67.2675 104.168C66.5395 104.168 65.9155 104.048 65.3955 103.808C64.8755 103.568 64.4115 103.232 64.0035 102.8V108.092H61.6635V91.808H63.0675C63.3955 91.808 63.5995 91.964 63.6795 92.276L63.8835 93.632ZM77.5635 86.288V104H75.2115V86.288H77.5635ZM86.1017 91.616C86.9977 91.616 87.8057 91.764 88.5257 92.06C89.2537 92.348 89.8697 92.768 90.3737 93.32C90.8857 93.864 91.2777 94.524 91.5497 95.3C91.8217 96.068 91.9577 96.932 91.9577 97.892C91.9577 98.852 91.8217 99.72 91.5497 100.496C91.2777 101.272 90.8857 101.932 90.3737 102.476C89.8697 103.02 89.2537 103.44 88.5257 103.736C87.8057 104.024 86.9977 104.168 86.1017 104.168C85.1977 104.168 84.3817 104.024 83.6537 103.736C82.9337 103.44 82.3177 103.02 81.8057 102.476C81.2937 101.932 80.8977 101.272 80.6177 100.496C80.3457 99.72 80.2097 98.852 80.2097 97.892C80.2097 96.932 80.3457 96.068 80.6177 95.3C80.8977 94.524 81.2937 93.864 81.8057 93.32C82.3177 92.768 82.9337 92.348 83.6537 92.06C84.3817 91.764 85.1977 91.616 86.1017 91.616ZM86.1017 102.344C87.2537 102.344 88.1137 101.956 88.6817 101.18C89.2497 100.404 89.5337 99.312 89.5337 97.904C89.5337 96.496 89.2497 95.404 88.6817 94.628C88.1137 93.844 87.2537 93.452 86.1017 93.452C84.9337 93.452 84.0617 93.844 83.4857 94.628C82.9177 95.404 82.6337 96.496 82.6337 97.904C82.6337 99.312 82.9177 100.404 83.4857 101.18C84.0617 101.956 84.9337 102.344 86.1017 102.344ZM101.122 98.588C100.17 98.62 99.3618 98.696 98.6978 98.816C98.0338 98.928 97.4938 99.08 97.0778 99.272C96.6618 99.464 96.3618 99.692 96.1778 99.956C95.9938 100.212 95.9018 100.5 95.9018 100.82C95.9018 101.124 95.9498 101.388 96.0458 101.612C96.1498 101.828 96.2858 102.008 96.4538 102.152C96.6298 102.288 96.8338 102.388 97.0658 102.452C97.2978 102.516 97.5498 102.548 97.8218 102.548C98.1818 102.548 98.5098 102.512 98.8058 102.44C99.1098 102.368 99.3938 102.268 99.6578 102.14C99.9218 102.004 100.174 101.84 100.414 101.648C100.654 101.456 100.89 101.236 101.122 100.988V98.588ZM94.2578 93.512C94.9378 92.864 95.6738 92.38 96.4658 92.06C97.2658 91.74 98.1418 91.58 99.0938 91.58C99.7898 91.58 100.406 91.696 100.942 91.928C101.478 92.152 101.93 92.468 102.298 92.876C102.666 93.284 102.942 93.772 103.126 94.34C103.318 94.908 103.414 95.536 103.414 96.224V104H102.37C102.138 104 101.962 103.964 101.842 103.892C101.722 103.812 101.626 103.668 101.554 103.46L101.302 102.392C100.99 102.68 100.682 102.936 100.378 103.16C100.074 103.376 99.7538 103.564 99.4178 103.724C99.0898 103.876 98.7378 103.992 98.3618 104.072C97.9858 104.152 97.5698 104.192 97.1138 104.192C96.6338 104.192 96.1818 104.128 95.7578 104C95.3418 103.864 94.9778 103.66 94.6658 103.388C94.3538 103.116 94.1058 102.776 93.9218 102.368C93.7458 101.96 93.6578 101.484 93.6578 100.94C93.6578 100.46 93.7858 100 94.0418 99.56C94.3058 99.112 94.7298 98.712 95.3138 98.36C95.9058 98.008 96.6738 97.72 97.6178 97.496C98.5698 97.272 99.7378 97.144 101.122 97.112V96.224C101.122 95.304 100.926 94.616 100.534 94.16C100.142 93.704 99.5658 93.476 98.8058 93.476C98.2938 93.476 97.8618 93.54 97.5098 93.668C97.1658 93.796 96.8658 93.94 96.6098 94.1C96.3618 94.252 96.1418 94.392 95.9498 94.52C95.7658 94.648 95.5738 94.712 95.3738 94.712C95.2138 94.712 95.0738 94.668 94.9538 94.58C94.8418 94.492 94.7498 94.388 94.6778 94.268L94.2578 93.512ZM114.406 94.76C114.022 94.256 113.606 93.904 113.158 93.704C112.718 93.504 112.222 93.404 111.67 93.404C110.598 93.404 109.766 93.792 109.174 94.568C108.59 95.336 108.298 96.46 108.298 97.94C108.298 98.716 108.362 99.38 108.49 99.932C108.626 100.476 108.818 100.924 109.066 101.276C109.322 101.62 109.634 101.876 110.002 102.044C110.37 102.204 110.786 102.284 111.25 102.284C111.93 102.284 112.518 102.132 113.014 101.828C113.51 101.524 113.974 101.096 114.406 100.544V94.76ZM116.758 86.288V104H115.342C115.014 104 114.81 103.844 114.73 103.532L114.526 102.128C114.006 102.744 113.414 103.24 112.75 103.616C112.094 103.984 111.334 104.168 110.47 104.168C109.774 104.168 109.142 104.032 108.574 103.76C108.014 103.488 107.534 103.092 107.134 102.572C106.734 102.044 106.426 101.392 106.21 100.616C105.994 99.84 105.886 98.948 105.886 97.94C105.886 97.036 106.006 96.196 106.246 95.42C106.486 94.644 106.834 93.972 107.29 93.404C107.746 92.836 108.298 92.392 108.946 92.072C109.594 91.744 110.326 91.58 111.142 91.58C111.878 91.58 112.502 91.7 113.014 91.94C113.534 92.18 113.998 92.52 114.406 92.96V86.288H116.758ZM132.645 98.588C131.693 98.62 130.885 98.696 130.221 98.816C129.557 98.928 129.017 99.08 128.601 99.272C128.185 99.464 127.885 99.692 127.701 99.956C127.517 100.212 127.425 100.5 127.425 100.82C127.425 101.124 127.473 101.388 127.569 101.612C127.673 101.828 127.809 102.008 127.977 102.152C128.153 102.288 128.357 102.388 128.589 102.452C128.821 102.516 129.073 102.548 129.345 102.548C129.705 102.548 130.033 102.512 130.329 102.44C130.633 102.368 130.917 102.268 131.181 102.14C131.445 102.004 131.697 101.84 131.937 101.648C132.177 101.456 132.413 101.236 132.645 100.988V98.588ZM125.781 93.512C126.461 92.864 127.197 92.38 127.989 92.06C128.789 91.74 129.665 91.58 130.617 91.58C131.313 91.58 131.929 91.696 132.465 91.928C133.001 92.152 133.453 92.468 133.821 92.876C134.189 93.284 134.465 93.772 134.649 94.34C134.841 94.908 134.937 95.536 134.937 96.224V104H133.893C133.661 104 133.485 103.964 133.365 103.892C133.245 103.812 133.149 103.668 133.077 103.46L132.825 102.392C132.513 102.68 132.205 102.936 131.901 103.16C131.597 103.376 131.277 103.564 130.941 103.724C130.613 103.876 130.261 103.992 129.885 104.072C129.509 104.152 129.093 104.192 128.637 104.192C128.157 104.192 127.705 104.128 127.281 104C126.865 103.864 126.501 103.66 126.189 103.388C125.877 103.116 125.629 102.776 125.445 102.368C125.269 101.96 125.181 101.484 125.181 100.94C125.181 100.46 125.309 100 125.565 99.56C125.829 99.112 126.253 98.712 126.837 98.36C127.429 98.008 128.197 97.72 129.141 97.496C130.093 97.272 131.261 97.144 132.645 97.112V96.224C132.645 95.304 132.449 94.616 132.057 94.16C131.665 93.704 131.089 93.476 130.329 93.476C129.817 93.476 129.385 93.54 129.033 93.668C128.689 93.796 128.389 93.94 128.133 94.1C127.885 94.252 127.665 94.392 127.473 94.52C127.289 94.648 127.097 94.712 126.897 94.712C126.737 94.712 126.597 94.668 126.477 94.58C126.365 94.492 126.273 94.388 126.201 94.268L125.781 93.512ZM147.188 88.844V94.616H154.1V96.692H147.188V104H144.62V86.768H155.3V88.844H147.188ZM160.112 91.808V104H157.772V91.808H160.112ZM160.556 88.04C160.556 88.256 160.512 88.464 160.424 88.664C160.336 88.856 160.216 89.028 160.064 89.18C159.92 89.324 159.748 89.44 159.548 89.528C159.348 89.608 159.14 89.648 158.924 89.648C158.708 89.648 158.504 89.608 158.312 89.528C158.12 89.44 157.948 89.324 157.796 89.18C157.652 89.028 157.536 88.856 157.448 88.664C157.368 88.464 157.328 88.256 157.328 88.04C157.328 87.816 157.368 87.608 157.448 87.416C157.536 87.216 157.652 87.044 157.796 86.9C157.948 86.748 158.12 86.632 158.312 86.552C158.504 86.464 158.708 86.42 158.924 86.42C159.14 86.42 159.348 86.464 159.548 86.552C159.748 86.632 159.92 86.748 160.064 86.9C160.216 87.044 160.336 87.216 160.424 87.416C160.512 87.608 160.556 87.816 160.556 88.04ZM165.899 86.288V104H163.547V86.288H165.899ZM177.318 96.548C177.318 96.084 177.25 95.656 177.114 95.264C176.986 94.872 176.794 94.532 176.538 94.244C176.282 93.956 175.97 93.732 175.602 93.572C175.234 93.412 174.81 93.332 174.33 93.332C173.346 93.332 172.57 93.616 172.002 94.184C171.442 94.752 171.086 95.54 170.934 96.548H177.318ZM179.25 102.26C178.962 102.596 178.63 102.888 178.254 103.136C177.878 103.376 177.478 103.572 177.054 103.724C176.63 103.876 176.19 103.988 175.734 104.06C175.286 104.132 174.842 104.168 174.402 104.168C173.562 104.168 172.782 104.028 172.062 103.748C171.35 103.46 170.73 103.044 170.202 102.5C169.682 101.948 169.274 101.268 168.978 100.46C168.69 99.644 168.546 98.708 168.546 97.652C168.546 96.804 168.678 96.016 168.942 95.288C169.206 94.552 169.582 93.912 170.07 93.368C170.566 92.824 171.17 92.396 171.882 92.084C172.594 91.772 173.394 91.616 174.282 91.616C175.026 91.616 175.71 91.74 176.334 91.988C176.966 92.228 177.51 92.58 177.966 93.044C178.422 93.508 178.778 94.08 179.034 94.76C179.298 95.44 179.43 96.216 179.43 97.088C179.43 97.448 179.39 97.692 179.31 97.82C179.23 97.94 179.082 98 178.866 98H170.874C170.898 98.728 171.002 99.364 171.186 99.908C171.37 100.444 171.622 100.892 171.942 101.252C172.27 101.612 172.658 101.88 173.106 102.056C173.554 102.232 174.054 102.32 174.606 102.32C175.126 102.32 175.574 102.26 175.95 102.14C176.334 102.02 176.662 101.892 176.934 101.756C177.214 101.612 177.446 101.48 177.63 101.36C177.822 101.24 177.99 101.18 178.134 101.18C178.326 101.18 178.474 101.252 178.578 101.396L179.25 102.26Z" fill="black"/>
<path d="M114.5 67.5V52.5H124.5L112 37.5L99.5 52.5H109.5V67.5H97V67.375C96.58 67.4 96.18 67.5 95.75 67.5C90.7772 67.5 86.0081 65.5246 82.4917 62.0083C78.9754 58.4919 77 53.7228 77 48.75C77 39.13 84.275 31.29 93.61 30.215C94.4284 25.9365 96.7122 22.0768 100.069 19.3C103.425 16.5231 107.644 15.0026 112 15C116.357 15.0024 120.576 16.5228 123.934 19.2996C127.291 22.0763 129.576 25.9361 130.395 30.215C139.73 31.29 146.995 39.13 146.995 48.75C146.995 53.7228 145.02 58.4919 141.503 62.0083C137.987 65.5246 133.218 67.5 128.245 67.5C127.825 67.5 127.42 67.4 126.995 67.375V67.5H114.5Z" fill="#BFC4CE"/>
<path d="M38.5259 122.256C38.5259 123.115 38.3873 123.896 38.1099 124.6C37.8379 125.304 37.4513 125.909 36.9499 126.416C36.4486 126.917 35.8486 127.307 35.1499 127.584C34.4513 127.861 33.6753 128 32.8219 128H28.5019V116.512H32.8219C33.6753 116.512 34.4513 116.651 35.1499 116.928C35.8486 117.205 36.4486 117.597 36.9499 118.104C37.4513 118.605 37.8379 119.211 38.1099 119.92C38.3873 120.624 38.5259 121.403 38.5259 122.256ZM36.7819 122.256C36.7819 121.573 36.6886 120.963 36.5019 120.424C36.3153 119.88 36.0486 119.421 35.7019 119.048C35.3606 118.669 34.9446 118.381 34.4539 118.184C33.9686 117.987 33.4246 117.888 32.8219 117.888H30.2139V126.624H32.8219C33.4246 126.624 33.9686 126.525 34.4539 126.328C34.9446 126.131 35.3606 125.845 35.7019 125.472C36.0486 125.093 36.3153 124.635 36.5019 124.096C36.6886 123.557 36.7819 122.944 36.7819 122.256ZM41.6696 121.432C41.9309 120.899 42.2456 120.48 42.6136 120.176C42.9816 119.872 43.4242 119.72 43.9416 119.72C44.1176 119.72 44.2829 119.741 44.4376 119.784C44.5976 119.821 44.7362 119.88 44.8536 119.96L44.7496 121.136C44.7122 121.28 44.6242 121.352 44.4856 121.352C44.4109 121.352 44.2989 121.339 44.1496 121.312C44.0002 121.28 43.8402 121.264 43.6696 121.264C43.4189 121.264 43.1976 121.301 43.0056 121.376C42.8136 121.445 42.6402 121.552 42.4856 121.696C42.3362 121.835 42.2029 122.008 42.0856 122.216C41.9682 122.419 41.8589 122.651 41.7576 122.912V128H40.1976V119.872H41.0936C41.2642 119.872 41.3789 119.904 41.4376 119.968C41.5016 120.027 41.5469 120.133 41.5736 120.288L41.6696 121.432ZM50.2999 124.392C49.6653 124.413 49.1266 124.464 48.6839 124.544C48.2413 124.619 47.8813 124.72 47.6039 124.848C47.3266 124.976 47.1266 125.128 47.0039 125.304C46.8813 125.475 46.8199 125.667 46.8199 125.88C46.8199 126.083 46.8519 126.259 46.9159 126.408C46.9853 126.552 47.0759 126.672 47.1879 126.768C47.3053 126.859 47.4413 126.925 47.5959 126.968C47.7506 127.011 47.9186 127.032 48.0999 127.032C48.3399 127.032 48.5586 127.008 48.7559 126.96C48.9586 126.912 49.1479 126.845 49.3239 126.76C49.4999 126.669 49.6679 126.56 49.8279 126.432C49.9879 126.304 50.1453 126.157 50.2999 125.992V124.392ZM45.7239 121.008C46.1773 120.576 46.6679 120.253 47.1959 120.04C47.7293 119.827 48.3133 119.72 48.9479 119.72C49.4119 119.72 49.8226 119.797 50.1799 119.952C50.5373 120.101 50.8386 120.312 51.0839 120.584C51.3293 120.856 51.5133 121.181 51.6359 121.56C51.7639 121.939 51.8279 122.357 51.8279 122.816V128H51.1319C50.9773 128 50.8599 127.976 50.7799 127.928C50.6999 127.875 50.6359 127.779 50.5879 127.64L50.4199 126.928C50.2119 127.12 50.0066 127.291 49.8039 127.44C49.6013 127.584 49.3879 127.709 49.1639 127.816C48.9453 127.917 48.7106 127.995 48.4599 128.048C48.2093 128.101 47.9319 128.128 47.6279 128.128C47.3079 128.128 47.0066 128.085 46.7239 128C46.4466 127.909 46.2039 127.773 45.9959 127.592C45.7879 127.411 45.6226 127.184 45.4999 126.912C45.3826 126.64 45.3239 126.323 45.3239 125.96C45.3239 125.64 45.4093 125.333 45.5799 125.04C45.7559 124.741 46.0386 124.475 46.4279 124.24C46.8226 124.005 47.3346 123.813 47.9639 123.664C48.5986 123.515 49.3773 123.429 50.2999 123.408V122.816C50.2999 122.203 50.1693 121.744 49.9079 121.44C49.6466 121.136 49.2626 120.984 48.7559 120.984C48.4146 120.984 48.1266 121.027 47.8919 121.112C47.6626 121.197 47.4626 121.293 47.2919 121.4C47.1266 121.501 46.9799 121.595 46.8519 121.68C46.7293 121.765 46.6013 121.808 46.4679 121.808C46.3613 121.808 46.2679 121.779 46.1879 121.72C46.1133 121.661 46.0519 121.592 46.0039 121.512L45.7239 121.008ZM56.7723 123.944C57.0496 123.944 57.2923 123.907 57.5003 123.832C57.7136 123.757 57.8896 123.653 58.0283 123.52C58.1723 123.381 58.279 123.216 58.3483 123.024C58.423 122.832 58.4603 122.621 58.4603 122.392C58.4603 121.923 58.3163 121.549 58.0283 121.272C57.7456 120.989 57.327 120.848 56.7723 120.848C56.223 120.848 55.8043 120.989 55.5163 121.272C55.2336 121.549 55.0923 121.923 55.0923 122.392C55.0923 122.621 55.127 122.832 55.1963 123.024C55.271 123.211 55.3776 123.373 55.5163 123.512C55.6603 123.645 55.8363 123.752 56.0443 123.832C56.2576 123.907 56.5003 123.944 56.7723 123.944ZM59.2603 128.424C59.2603 128.232 59.207 128.08 59.1003 127.968C58.9936 127.851 58.847 127.76 58.6603 127.696C58.479 127.627 58.2656 127.579 58.0203 127.552C57.775 127.52 57.5163 127.496 57.2443 127.48C56.9776 127.464 56.703 127.451 56.4203 127.44C56.1376 127.424 55.8656 127.397 55.6043 127.36C55.327 127.499 55.0976 127.667 54.9163 127.864C54.7403 128.061 54.6523 128.293 54.6523 128.56C54.6523 128.731 54.695 128.891 54.7803 129.04C54.871 129.189 55.007 129.317 55.1883 129.424C55.375 129.536 55.607 129.621 55.8843 129.68C56.167 129.744 56.503 129.776 56.8923 129.776C57.2763 129.776 57.615 129.741 57.9083 129.672C58.2016 129.608 58.447 129.515 58.6443 129.392C58.847 129.275 58.999 129.133 59.1003 128.968C59.207 128.803 59.2603 128.621 59.2603 128.424ZM60.8443 120.176V120.76C60.8443 120.952 60.7243 121.072 60.4843 121.12L59.6123 121.248C59.687 121.413 59.7456 121.589 59.7883 121.776C59.831 121.957 59.8523 122.149 59.8523 122.352C59.8523 122.752 59.775 123.115 59.6203 123.44C59.4656 123.76 59.2523 124.035 58.9803 124.264C58.7083 124.493 58.383 124.669 58.0043 124.792C57.631 124.915 57.2203 124.976 56.7723 124.976C56.4043 124.976 56.0603 124.936 55.7403 124.856C55.5803 124.952 55.4576 125.059 55.3723 125.176C55.2923 125.288 55.2523 125.4 55.2523 125.512C55.2523 125.699 55.3296 125.837 55.4843 125.928C55.6443 126.019 55.8496 126.085 56.1003 126.128C56.3563 126.165 56.647 126.189 56.9723 126.2C57.303 126.211 57.6363 126.229 57.9723 126.256C58.3136 126.277 58.647 126.32 58.9723 126.384C59.303 126.443 59.5936 126.541 59.8443 126.68C60.1003 126.813 60.3056 127 60.4603 127.24C60.6203 127.475 60.7003 127.781 60.7003 128.16C60.7003 128.512 60.6123 128.853 60.4363 129.184C60.2656 129.515 60.015 129.808 59.6843 130.064C59.3536 130.32 58.951 130.525 58.4763 130.68C58.0016 130.835 57.463 130.912 56.8603 130.912C56.2576 130.912 55.7323 130.853 55.2843 130.736C54.8416 130.619 54.471 130.461 54.1723 130.264C53.879 130.067 53.6576 129.837 53.5083 129.576C53.3643 129.315 53.2923 129.043 53.2923 128.76C53.2923 128.365 53.415 128.032 53.6603 127.76C53.9056 127.483 54.2443 127.267 54.6763 127.112C54.4416 127.005 54.255 126.861 54.1163 126.68C53.9776 126.493 53.9083 126.248 53.9083 125.944C53.9083 125.827 53.9296 125.707 53.9723 125.584C54.015 125.456 54.079 125.331 54.1643 125.208C54.255 125.08 54.3643 124.96 54.4923 124.848C54.6256 124.736 54.7776 124.635 54.9483 124.544C54.5483 124.32 54.2336 124.024 54.0043 123.656C53.775 123.283 53.6603 122.848 53.6603 122.352C53.6603 121.952 53.7376 121.592 53.8923 121.272C54.047 120.952 54.2603 120.677 54.5323 120.448C54.8096 120.219 55.1376 120.043 55.5163 119.92C55.9003 119.797 56.319 119.736 56.7723 119.736C57.4763 119.736 58.0816 119.883 58.5883 120.176H60.8443ZM70.6906 124.392C70.0559 124.413 69.5172 124.464 69.0746 124.544C68.6319 124.619 68.2719 124.72 67.9946 124.848C67.7172 124.976 67.5172 125.128 67.3946 125.304C67.2719 125.475 67.2106 125.667 67.2106 125.88C67.2106 126.083 67.2426 126.259 67.3066 126.408C67.3759 126.552 67.4666 126.672 67.5786 126.768C67.6959 126.859 67.8319 126.925 67.9866 126.968C68.1412 127.011 68.3092 127.032 68.4906 127.032C68.7306 127.032 68.9492 127.008 69.1466 126.96C69.3492 126.912 69.5386 126.845 69.7146 126.76C69.8906 126.669 70.0586 126.56 70.2186 126.432C70.3786 126.304 70.5359 126.157 70.6906 125.992V124.392ZM66.1146 121.008C66.5679 120.576 67.0586 120.253 67.5866 120.04C68.1199 119.827 68.7039 119.72 69.3386 119.72C69.8026 119.72 70.2132 119.797 70.5706 119.952C70.9279 120.101 71.2292 120.312 71.4746 120.584C71.7199 120.856 71.9039 121.181 72.0266 121.56C72.1546 121.939 72.2186 122.357 72.2186 122.816V128H71.5226C71.3679 128 71.2506 127.976 71.1706 127.928C71.0906 127.875 71.0266 127.779 70.9786 127.64L70.8106 126.928C70.6026 127.12 70.3972 127.291 70.1946 127.44C69.9919 127.584 69.7786 127.709 69.5546 127.816C69.3359 127.917 69.1012 127.995 68.8506 128.048C68.5999 128.101 68.3226 128.128 68.0186 128.128C67.6986 128.128 67.3972 128.085 67.1146 128C66.8372 127.909 66.5946 127.773 66.3866 127.592C66.1786 127.411 66.0132 127.184 65.8906 126.912C65.7732 126.64 65.7146 126.323 65.7146 125.96C65.7146 125.64 65.7999 125.333 65.9706 125.04C66.1466 124.741 66.4292 124.475 66.8186 124.24C67.2132 124.005 67.7252 123.813 68.3546 123.664C68.9892 123.515 69.7679 123.429 70.6906 123.408V122.816C70.6906 122.203 70.5599 121.744 70.2986 121.44C70.0372 121.136 69.6532 120.984 69.1466 120.984C68.8052 120.984 68.5172 121.027 68.2826 121.112C68.0532 121.197 67.8532 121.293 67.6826 121.4C67.5172 121.501 67.3706 121.595 67.2426 121.68C67.1199 121.765 66.9919 121.808 66.8586 121.808C66.7519 121.808 66.6586 121.779 66.5786 121.72C66.5039 121.661 66.4426 121.592 66.3946 121.512L66.1146 121.008ZM75.7709 121C75.9469 120.813 76.1309 120.643 76.3229 120.488C76.5149 120.333 76.7176 120.203 76.9309 120.096C77.1496 119.984 77.3816 119.899 77.6269 119.84C77.8776 119.776 78.1443 119.744 78.4269 119.744C78.8749 119.744 79.2669 119.819 79.6029 119.968C79.9443 120.117 80.2296 120.328 80.4589 120.6C80.6883 120.867 80.8616 121.189 80.9789 121.568C81.0963 121.947 81.1549 122.365 81.1549 122.824V128H79.5869V122.824C79.5869 122.243 79.4536 121.792 79.1869 121.472C78.9203 121.147 78.5123 120.984 77.9629 120.984C77.5629 120.984 77.1869 121.08 76.8349 121.272C76.4883 121.459 76.1656 121.715 75.8669 122.04V128H74.3069V119.872H75.2429C75.4616 119.872 75.5976 119.976 75.6509 120.184L75.7709 121ZM88.5001 121.84C88.2441 121.504 87.9667 121.269 87.6681 121.136C87.3747 121.003 87.0441 120.936 86.6761 120.936C85.9614 120.936 85.4067 121.195 85.0121 121.712C84.6227 122.224 84.4281 122.973 84.4281 123.96C84.4281 124.477 84.4707 124.92 84.5561 125.288C84.6467 125.651 84.7747 125.949 84.9401 126.184C85.1107 126.413 85.3187 126.584 85.5641 126.696C85.8094 126.803 86.0867 126.856 86.3961 126.856C86.8494 126.856 87.2414 126.755 87.5721 126.552C87.9027 126.349 88.2121 126.064 88.5001 125.696V121.84ZM90.0681 116.192V128H89.1241C88.9054 128 88.7694 127.896 88.7161 127.688L88.5801 126.752C88.2334 127.163 87.8387 127.493 87.3961 127.744C86.9587 127.989 86.4521 128.112 85.8761 128.112C85.4121 128.112 84.9907 128.021 84.6121 127.84C84.2387 127.659 83.9187 127.395 83.6521 127.048C83.3854 126.696 83.1801 126.261 83.0361 125.744C82.8921 125.227 82.8201 124.632 82.8201 123.96C82.8201 123.357 82.9001 122.797 83.0601 122.28C83.2201 121.763 83.4521 121.315 83.7561 120.936C84.0601 120.557 84.4281 120.261 84.8601 120.048C85.2921 119.829 85.7801 119.72 86.3241 119.72C86.8147 119.72 87.2307 119.8 87.5721 119.96C87.9187 120.12 88.2281 120.347 88.5001 120.64V116.192H90.0681ZM101.531 121.84C101.275 121.504 100.998 121.269 100.699 121.136C100.406 121.003 100.075 120.936 99.7073 120.936C98.9926 120.936 98.438 121.195 98.0433 121.712C97.654 122.224 97.4593 122.973 97.4593 123.96C97.4593 124.477 97.502 124.92 97.5873 125.288C97.678 125.651 97.806 125.949 97.9713 126.184C98.142 126.413 98.35 126.584 98.5953 126.696C98.8406 126.803 99.118 126.856 99.4273 126.856C99.8806 126.856 100.273 126.755 100.603 126.552C100.934 126.349 101.243 126.064 101.531 125.696V121.84ZM103.099 116.192V128H102.155C101.937 128 101.801 127.896 101.747 127.688L101.611 126.752C101.265 127.163 100.87 127.493 100.427 127.744C99.99 127.989 99.4833 128.112 98.9073 128.112C98.4433 128.112 98.022 128.021 97.6433 127.84C97.27 127.659 96.95 127.395 96.6833 127.048C96.4166 126.696 96.2113 126.261 96.0673 125.744C95.9233 125.227 95.8513 124.632 95.8513 123.96C95.8513 123.357 95.9313 122.797 96.0913 122.28C96.2513 121.763 96.4833 121.315 96.7873 120.936C97.0913 120.557 97.4593 120.261 97.8913 120.048C98.3233 119.829 98.8113 119.72 99.3553 119.72C99.846 119.72 100.262 119.8 100.603 119.96C100.95 120.12 101.259 120.347 101.531 120.64V116.192H103.099ZM106.748 121.432C107.009 120.899 107.324 120.48 107.692 120.176C108.06 119.872 108.502 119.72 109.02 119.72C109.196 119.72 109.361 119.741 109.516 119.784C109.676 119.821 109.814 119.88 109.932 119.96L109.828 121.136C109.79 121.28 109.702 121.352 109.564 121.352C109.489 121.352 109.377 121.339 109.228 121.312C109.078 121.28 108.918 121.264 108.748 121.264C108.497 121.264 108.276 121.301 108.084 121.376C107.892 121.445 107.718 121.552 107.564 121.696C107.414 121.835 107.281 122.008 107.164 122.216C107.046 122.419 106.937 122.651 106.836 122.912V128H105.276V119.872H106.172C106.342 119.872 106.457 119.904 106.516 119.968C106.58 120.027 106.625 120.133 106.652 120.288L106.748 121.432ZM114.302 119.744C114.9 119.744 115.438 119.843 115.918 120.04C116.404 120.232 116.814 120.512 117.15 120.88C117.492 121.243 117.753 121.683 117.934 122.2C118.116 122.712 118.206 123.288 118.206 123.928C118.206 124.568 118.116 125.147 117.934 125.664C117.753 126.181 117.492 126.621 117.15 126.984C116.814 127.347 116.404 127.627 115.918 127.824C115.438 128.016 114.9 128.112 114.302 128.112C113.7 128.112 113.156 128.016 112.67 127.824C112.19 127.627 111.78 127.347 111.438 126.984C111.097 126.621 110.833 126.181 110.646 125.664C110.465 125.147 110.374 124.568 110.374 123.928C110.374 123.288 110.465 122.712 110.646 122.2C110.833 121.683 111.097 121.243 111.438 120.88C111.78 120.512 112.19 120.232 112.67 120.04C113.156 119.843 113.7 119.744 114.302 119.744ZM114.302 126.896C115.07 126.896 115.644 126.637 116.022 126.12C116.401 125.603 116.59 124.875 116.59 123.936C116.59 122.997 116.401 122.269 116.022 121.752C115.644 121.229 115.07 120.968 114.302 120.968C113.524 120.968 112.942 121.229 112.558 121.752C112.18 122.269 111.99 122.997 111.99 123.936C111.99 124.875 112.18 125.603 112.558 126.12C112.942 126.637 113.524 126.896 114.302 126.896ZM121.508 126C121.764 126.336 122.038 126.571 122.332 126.704C122.63 126.837 122.964 126.904 123.332 126.904C124.046 126.904 124.598 126.648 124.988 126.136C125.382 125.619 125.58 124.867 125.58 123.88C125.58 123.363 125.534 122.923 125.444 122.56C125.358 122.192 125.23 121.893 125.06 121.664C124.894 121.429 124.689 121.259 124.444 121.152C124.198 121.04 123.921 120.984 123.612 120.984C123.158 120.984 122.764 121.085 122.428 121.288C122.097 121.491 121.79 121.779 121.508 122.152V126ZM121.428 121.088C121.598 120.885 121.78 120.701 121.972 120.536C122.169 120.365 122.38 120.221 122.604 120.104C122.828 119.981 123.065 119.888 123.316 119.824C123.572 119.755 123.844 119.72 124.132 119.72C124.596 119.72 125.014 119.811 125.388 119.992C125.766 120.173 126.089 120.44 126.356 120.792C126.622 121.144 126.828 121.579 126.972 122.096C127.121 122.613 127.196 123.208 127.196 123.88C127.196 124.483 127.113 125.043 126.948 125.56C126.788 126.072 126.556 126.517 126.252 126.896C125.953 127.275 125.585 127.573 125.148 127.792C124.716 128.005 124.228 128.112 123.684 128.112C123.198 128.112 122.782 128.032 122.436 127.872C122.089 127.712 121.78 127.488 121.508 127.2V130.728H119.948V119.872H120.884C121.102 119.872 121.238 119.976 121.292 120.184L121.428 121.088ZM133.538 128V121.152L132.69 121.048C132.568 121.021 132.466 120.979 132.386 120.92C132.312 120.856 132.274 120.765 132.274 120.648V120H133.538V119.608C133.538 119.112 133.616 118.656 133.77 118.24C133.93 117.819 134.168 117.456 134.482 117.152C134.802 116.848 135.197 116.613 135.666 116.448C136.141 116.277 136.696 116.192 137.33 116.192C137.533 116.192 137.746 116.205 137.97 116.232C138.194 116.259 138.384 116.299 138.538 116.352L138.482 117.168C138.472 117.275 138.405 117.331 138.282 117.336C138.16 117.341 137.989 117.344 137.77 117.344C137.285 117.344 136.872 117.392 136.53 117.488C136.189 117.584 135.909 117.728 135.69 117.92C135.472 118.112 135.312 118.355 135.21 118.648C135.109 118.936 135.058 119.272 135.058 119.656V120H140.002V128H138.434V121.136H135.106V128H133.538ZM143.86 116.192V128H142.292V116.192H143.86ZM151.472 123.032C151.472 122.723 151.427 122.437 151.336 122.176C151.251 121.915 151.123 121.688 150.952 121.496C150.782 121.304 150.574 121.155 150.328 121.048C150.083 120.941 149.8 120.888 149.48 120.888C148.824 120.888 148.307 121.077 147.928 121.456C147.555 121.835 147.318 122.36 147.216 123.032H151.472ZM152.76 126.84C152.568 127.064 152.347 127.259 152.096 127.424C151.846 127.584 151.579 127.715 151.296 127.816C151.014 127.917 150.72 127.992 150.416 128.04C150.118 128.088 149.822 128.112 149.528 128.112C148.968 128.112 148.448 128.019 147.968 127.832C147.494 127.64 147.08 127.363 146.728 127C146.382 126.632 146.11 126.179 145.912 125.64C145.72 125.096 145.624 124.472 145.624 123.768C145.624 123.203 145.712 122.677 145.888 122.192C146.064 121.701 146.315 121.275 146.64 120.912C146.971 120.549 147.374 120.264 147.848 120.056C148.323 119.848 148.856 119.744 149.448 119.744C149.944 119.744 150.4 119.827 150.816 119.992C151.238 120.152 151.6 120.387 151.904 120.696C152.208 121.005 152.446 121.387 152.616 121.84C152.792 122.293 152.88 122.811 152.88 123.392C152.88 123.632 152.854 123.795 152.8 123.88C152.747 123.96 152.648 124 152.504 124H147.176C147.192 124.485 147.262 124.909 147.384 125.272C147.507 125.629 147.675 125.928 147.888 126.168C148.107 126.408 148.366 126.587 148.664 126.704C148.963 126.821 149.296 126.88 149.664 126.88C150.011 126.88 150.31 126.84 150.56 126.76C150.816 126.68 151.035 126.595 151.216 126.504C151.403 126.408 151.558 126.32 151.68 126.24C151.808 126.16 151.92 126.12 152.016 126.12C152.144 126.12 152.243 126.168 152.312 126.264L152.76 126.84ZM159.349 121.272C159.306 121.341 159.261 121.392 159.213 121.424C159.165 121.451 159.104 121.464 159.029 121.464C158.944 121.464 158.848 121.435 158.741 121.376C158.64 121.317 158.514 121.253 158.365 121.184C158.221 121.115 158.05 121.051 157.853 120.992C157.656 120.933 157.421 120.904 157.149 120.904C156.925 120.904 156.72 120.933 156.533 120.992C156.352 121.045 156.197 121.123 156.069 121.224C155.941 121.32 155.842 121.437 155.773 121.576C155.704 121.709 155.669 121.853 155.669 122.008C155.669 122.211 155.728 122.379 155.845 122.512C155.968 122.645 156.125 122.76 156.317 122.856C156.514 122.952 156.736 123.04 156.981 123.12C157.232 123.195 157.485 123.275 157.741 123.36C158.002 123.445 158.256 123.544 158.501 123.656C158.752 123.763 158.973 123.899 159.165 124.064C159.362 124.224 159.52 124.419 159.637 124.648C159.76 124.877 159.821 125.157 159.821 125.488C159.821 125.867 159.752 126.219 159.613 126.544C159.48 126.864 159.28 127.141 159.013 127.376C158.752 127.611 158.426 127.795 158.037 127.928C157.648 128.061 157.202 128.128 156.701 128.128C156.141 128.128 155.624 128.035 155.149 127.848C154.674 127.661 154.277 127.424 153.957 127.136L154.325 126.536C154.368 126.461 154.421 126.405 154.485 126.368C154.549 126.325 154.634 126.304 154.741 126.304C154.842 126.304 154.946 126.341 155.053 126.416C155.16 126.491 155.288 126.573 155.437 126.664C155.586 126.749 155.768 126.829 155.981 126.904C156.194 126.973 156.461 127.008 156.781 127.008C157.048 127.008 157.28 126.976 157.477 126.912C157.674 126.843 157.837 126.752 157.965 126.64C158.098 126.523 158.197 126.389 158.261 126.24C158.325 126.091 158.357 125.933 158.357 125.768C158.357 125.555 158.296 125.379 158.173 125.24C158.056 125.096 157.898 124.973 157.701 124.872C157.509 124.771 157.288 124.683 157.037 124.608C156.786 124.533 156.53 124.453 156.269 124.368C156.008 124.283 155.752 124.184 155.501 124.072C155.25 123.96 155.026 123.819 154.829 123.648C154.637 123.477 154.48 123.269 154.357 123.024C154.24 122.779 154.181 122.48 154.181 122.128C154.181 121.813 154.245 121.512 154.373 121.224C154.506 120.936 154.696 120.683 154.941 120.464C155.192 120.245 155.498 120.072 155.861 119.944C156.229 119.811 156.648 119.744 157.117 119.744C157.656 119.744 158.141 119.829 158.573 120C159.01 120.171 159.384 120.405 159.693 120.704L159.349 121.272ZM167.117 120.904C167.458 120.557 167.834 120.277 168.245 120.064C168.661 119.851 169.138 119.744 169.677 119.744C170.125 119.744 170.517 119.819 170.853 119.968C171.194 120.117 171.48 120.328 171.709 120.6C171.938 120.867 172.112 121.189 172.229 121.568C172.346 121.947 172.405 122.365 172.405 122.824V128H170.837V122.824C170.837 122.243 170.704 121.792 170.437 121.472C170.17 121.147 169.762 120.984 169.213 120.984C168.813 120.984 168.437 121.08 168.085 121.272C167.738 121.459 167.416 121.715 167.117 122.04V128H165.557V116.192H167.117V120.904ZM179.894 123.032C179.894 122.723 179.849 122.437 179.758 122.176C179.673 121.915 179.545 121.688 179.374 121.496C179.203 121.304 178.995 121.155 178.75 121.048C178.505 120.941 178.222 120.888 177.902 120.888C177.246 120.888 176.729 121.077 176.35 121.456C175.977 121.835 175.739 122.36 175.638 123.032H179.894ZM181.182 126.84C180.99 127.064 180.769 127.259 180.518 127.424C180.267 127.584 180.001 127.715 179.718 127.816C179.435 127.917 179.142 127.992 178.838 128.04C178.539 128.088 178.243 128.112 177.95 128.112C177.39 128.112 176.87 128.019 176.39 127.832C175.915 127.64 175.502 127.363 175.15 127C174.803 126.632 174.531 126.179 174.334 125.64C174.142 125.096 174.046 124.472 174.046 123.768C174.046 123.203 174.134 122.677 174.31 122.192C174.486 121.701 174.737 121.275 175.062 120.912C175.393 120.549 175.795 120.264 176.27 120.056C176.745 119.848 177.278 119.744 177.87 119.744C178.366 119.744 178.822 119.827 179.238 119.992C179.659 120.152 180.022 120.387 180.326 120.696C180.63 121.005 180.867 121.387 181.038 121.84C181.214 122.293 181.302 122.811 181.302 123.392C181.302 123.632 181.275 123.795 181.222 123.88C181.169 123.96 181.07 124 180.926 124H175.598C175.614 124.485 175.683 124.909 175.806 125.272C175.929 125.629 176.097 125.928 176.31 126.168C176.529 126.408 176.787 126.587 177.086 126.704C177.385 126.821 177.718 126.88 178.086 126.88C178.433 126.88 178.731 126.84 178.982 126.76C179.238 126.68 179.457 126.595 179.638 126.504C179.825 126.408 179.979 126.32 180.102 126.24C180.23 126.16 180.342 126.12 180.438 126.12C180.566 126.12 180.665 126.168 180.734 126.264L181.182 126.84ZM184.451 121.432C184.712 120.899 185.027 120.48 185.395 120.176C185.763 119.872 186.205 119.72 186.723 119.72C186.899 119.72 187.064 119.741 187.219 119.784C187.379 119.821 187.517 119.88 187.635 119.96L187.531 121.136C187.493 121.28 187.405 121.352 187.267 121.352C187.192 121.352 187.08 121.339 186.931 121.312C186.781 121.28 186.621 121.264 186.451 121.264C186.2 121.264 185.979 121.301 185.787 121.376C185.595 121.445 185.421 121.552 185.267 121.696C185.117 121.835 184.984 122.008 184.867 122.216C184.749 122.419 184.64 122.651 184.539 122.912V128H182.979V119.872H183.875C184.045 119.872 184.16 119.904 184.219 119.968C184.283 120.027 184.328 120.133 184.355 120.288L184.451 121.432ZM193.925 123.032C193.925 122.723 193.88 122.437 193.789 122.176C193.704 121.915 193.576 121.688 193.405 121.496C193.235 121.304 193.027 121.155 192.781 121.048C192.536 120.941 192.253 120.888 191.933 120.888C191.277 120.888 190.76 121.077 190.381 121.456C190.008 121.835 189.771 122.36 189.669 123.032H193.925ZM195.213 126.84C195.021 127.064 194.8 127.259 194.549 127.424C194.299 127.584 194.032 127.715 193.749 127.816C193.467 127.917 193.173 127.992 192.869 128.04C192.571 128.088 192.275 128.112 191.981 128.112C191.421 128.112 190.901 128.019 190.421 127.832C189.947 127.64 189.533 127.363 189.181 127C188.835 126.632 188.563 126.179 188.365 125.64C188.173 125.096 188.077 124.472 188.077 123.768C188.077 123.203 188.165 122.677 188.341 122.192C188.517 121.701 188.768 121.275 189.093 120.912C189.424 120.549 189.827 120.264 190.301 120.056C190.776 119.848 191.309 119.744 191.901 119.744C192.397 119.744 192.853 119.827 193.269 119.992C193.691 120.152 194.053 120.387 194.357 120.696C194.661 121.005 194.899 121.387 195.069 121.84C195.245 122.293 195.333 122.811 195.333 123.392C195.333 123.632 195.307 123.795 195.253 123.88C195.2 123.96 195.101 124 194.957 124H189.629C189.645 124.485 189.715 124.909 189.837 125.272C189.96 125.629 190.128 125.928 190.341 126.168C190.56 126.408 190.819 126.587 191.117 126.704C191.416 126.821 191.749 126.88 192.117 126.88C192.464 126.88 192.763 126.84 193.013 126.76C193.269 126.68 193.488 126.595 193.669 126.504C193.856 126.408 194.011 126.32 194.133 126.24C194.261 126.16 194.373 126.12 194.469 126.12C194.597 126.12 194.696 126.168 194.765 126.264L195.213 126.84Z" fill="#ACB1BD"/>
</svg>
